<svg width="54" height="51" viewBox="0 0 54 51" fill="none" xmlns="http://www.w3.org/2000/svg">
<path fill-rule="evenodd" clip-rule="evenodd" d="M22.7498 2.28821C20.1878 3.57946 18.4354 4.51203 18.3637 4.635C18.2919 4.76823 18.2612 7.95536 18.2612 14.4526V24.0652L17.2876 24.5571C16.6113 24.885 16.2936 24.9978 16.2628 24.9158C16.2423 24.8441 16.1091 24.3931 15.9554 23.9217C15.4533 22.3128 14.7666 21.1958 14.0493 20.8371C12.7683 20.1812 11.5795 21.2675 10.7289 23.8602C10.36 24.9875 10.0423 26.7399 10.0833 27.4368L10.114 28.0312L5.71765 30.1525C3.29913 31.3208 1.25978 32.3661 1.18804 32.4686C1.07531 32.6223 0.429688 33.1859 0.429688 34.9896C0.429688 37.0597 1.06506 37.3364 1.21878 37.5208C1.43399 37.7668 26.9925 50.1464 27.2897 50.1464C27.5869 50.1464 53.1249 37.7668 53.3299 37.5208C53.4938 37.3364 53.5143 37.0494 53.5143 34.9793C53.5143 32.9092 53.4938 32.6223 53.3401 32.4378C53.2376 32.3148 51.1983 31.2798 48.8002 30.1218L44.4448 28.0209L44.4756 27.4266C44.5166 26.7297 44.1989 25.0183 43.8197 23.8602C43.1433 21.7697 42.221 20.6321 41.2167 20.6321C40.7658 20.6321 40.1612 20.9703 39.7922 21.4315C39.3823 21.9541 38.8084 23.1736 38.542 24.0652C38.4293 24.4546 38.3165 24.8441 38.296 24.9158C38.2653 24.9978 37.9476 24.8953 37.2712 24.5571L36.2977 24.0652V14.4526C36.2977 7.95536 36.2669 4.76823 36.1952 4.635C36.062 4.38905 27.5869 0.136133 27.2589 0.146381C27.1257 0.146381 25.0966 1.10969 22.7498 2.28821ZM30.4051 3.43599C32.1267 4.29682 33.5307 5.02443 33.5307 5.05517C33.5307 5.08592 32.1267 5.81352 30.4051 6.67436L27.2794 8.23205L24.1538 6.67436C22.4321 5.81352 21.0282 5.08592 21.0282 5.05517C21.0282 5.01418 27.1155 1.91928 27.2487 1.88854C27.2692 1.87829 28.6834 2.5854 30.4051 3.43599ZM26.4596 22.6817V35.6967L23.1802 34.057L19.9009 32.4173V6.38741L23.1802 8.02709L26.4596 9.66677V22.6817ZM34.658 19.4024V32.4173L31.3786 34.057L28.0993 35.6967V9.66677L31.3581 8.03734C33.1413 7.13552 34.617 6.39766 34.6375 6.39766C34.6478 6.38741 34.658 12.239 34.658 19.4024ZM13.6394 22.6407C14.08 23.2044 14.8179 25.5102 14.9409 26.7604C15.0228 27.4983 14.8794 27.9799 14.4694 28.3694L14.162 28.6666V27.7647C14.162 26.9551 14.1415 26.8527 13.9058 26.6272C13.7521 26.4632 13.5369 26.371 13.3422 26.371C13.1475 26.371 12.9322 26.4632 12.7785 26.6272C12.5428 26.8527 12.5223 26.9551 12.5223 27.7647V28.6563L12.2764 28.4309C11.8255 28.0107 11.6717 27.5393 11.7332 26.8219C11.8869 25.172 12.9015 22.3743 13.3422 22.3743C13.3934 22.3743 13.5266 22.4973 13.6394 22.6407ZM41.5139 22.6407C41.9751 23.2249 42.7027 25.5717 42.8257 26.8219C42.8871 27.5393 42.7334 28.0107 42.2825 28.4309L42.0366 28.6563V27.7647C42.0366 26.9551 42.0161 26.8527 41.7804 26.6272C41.6266 26.4632 41.4114 26.371 41.2167 26.371C41.022 26.371 40.8068 26.4632 40.6531 26.6272C40.4174 26.8527 40.3969 26.9551 40.3969 27.7647V28.6666L40.0894 28.3694C39.6795 27.9799 39.536 27.4983 39.618 26.7604C39.782 25.1105 40.7863 22.3743 41.2167 22.3743C41.268 22.3743 41.4012 22.4973 41.5139 22.6407ZM18.2612 29.5581C18.2612 31.8639 18.3022 33.2167 18.3637 33.3499C18.4867 33.5754 26.9515 37.8488 27.2794 37.8488C27.6074 37.8488 36.0722 33.5754 36.1952 33.3499C36.2567 33.2167 36.2977 31.8639 36.2977 29.5581C36.2977 27.5803 36.3182 25.9611 36.3489 25.9611C36.3694 25.9611 36.7383 26.1251 37.1585 26.3403L37.9066 26.7092L37.9681 27.4061C38.0706 28.6256 38.665 29.5274 39.7308 30.0705L40.3969 30.419V31.8332C40.3969 33.1962 40.4071 33.2577 40.6531 33.4934C40.8068 33.6573 41.022 33.7496 41.2167 33.7496C41.4114 33.7496 41.6266 33.6573 41.7804 33.4934C42.0263 33.2577 42.0366 33.1962 42.0366 31.8229V30.3985L42.467 30.2038C42.6924 30.1013 43.0614 29.8861 43.2663 29.7426L43.6455 29.4659L47.1913 31.1671C49.1487 32.1099 50.7371 32.899 50.7371 32.9297C50.7371 32.9605 45.4696 35.5327 39.0134 38.6481L27.2897 44.3153L16.5498 39.1195C10.6469 36.2603 5.34873 33.6983 4.78509 33.4319L3.76029 32.94L6.42477 31.6487C7.89023 30.9314 9.50941 30.1525 10.0218 29.9066L10.9441 29.4762L11.2311 29.7016C11.395 29.8348 11.7435 30.0398 12.0202 30.173L12.5223 30.3985V31.8229C12.5223 33.1962 12.5326 33.2577 12.7785 33.4934C13.1065 33.8316 13.5779 33.8316 13.9058 33.4934C14.1518 33.2577 14.162 33.1962 14.162 31.8332V30.419L14.8281 30.0705C15.8939 29.5274 16.4883 28.6256 16.5908 27.4061L16.6523 26.7092L17.3799 26.3403C17.7795 26.1353 18.1382 25.9713 18.1895 25.9713C18.2305 25.9611 18.2612 27.5803 18.2612 29.5581ZM14.6232 40.0008C21.0487 43.1162 26.3469 45.6885 26.3879 45.7295C26.4289 45.7705 26.4494 46.3034 26.4391 46.8977L26.4084 47.9943L15.648 42.7883C9.73487 39.9189 4.39566 37.3466 3.79103 37.0494L2.68425 36.5268V35.3892C2.68425 34.5079 2.71499 34.2517 2.81747 34.2927C2.87896 34.3235 8.19767 36.8957 14.6232 40.0008ZM51.8029 36.5268C51.7312 36.5883 28.6732 47.7791 28.2223 47.9635C28.1198 48.0045 28.0993 47.7791 28.1198 46.8773L28.1505 45.7295L39.987 40.0008L51.8234 34.2722L51.8541 35.3585C51.8644 35.9631 51.8439 36.4858 51.8029 36.5268Z" fill="#478CCB"/>
<path fill-rule="evenodd" clip-rule="evenodd" d="M20.9769 9.82047C20.7104 10.0767 20.6489 10.4661 20.8232 10.8043C20.9564 11.0502 24.5124 12.8436 24.8711 12.8436C25.4245 12.8436 25.8139 12.1263 25.5372 11.6036C25.404 11.3577 21.848 9.56427 21.4893 9.56427C21.3458 9.56427 21.1101 9.677 20.9769 9.82047Z" fill="#478CCB"/>
<path fill-rule="evenodd" clip-rule="evenodd" d="M20.9769 13.0998C20.7104 13.356 20.6489 13.7455 20.8232 14.0836C20.9564 14.3296 24.5124 16.123 24.8711 16.123C25.4245 16.123 25.8139 15.4056 25.5372 14.883C25.404 14.637 21.848 12.8436 21.4893 12.8436C21.3458 12.8436 21.1101 12.9564 20.9769 13.0998Z" fill="#478CCB"/>
<path fill-rule="evenodd" clip-rule="evenodd" d="M20.9769 16.3792C20.7104 16.6354 20.6489 17.0248 20.8232 17.363C20.9564 17.609 24.5124 19.4024 24.8711 19.4024C25.4245 19.4024 25.8139 18.685 25.5372 18.1623C25.404 17.9164 21.848 16.123 21.4893 16.123C21.3458 16.123 21.1101 16.2357 20.9769 16.3792Z" fill="#478CCB"/>
<path fill-rule="evenodd" clip-rule="evenodd" d="M20.9769 19.6586C20.7104 19.9148 20.6489 20.3042 20.8232 20.6424C20.9564 20.8883 24.5124 22.6817 24.8711 22.6817C25.4245 22.6817 25.8139 21.9644 25.5372 21.4417C25.404 21.1958 21.848 19.4024 21.4893 19.4024C21.3458 19.4024 21.1101 19.5151 20.9769 19.6586Z" fill="#478CCB"/>
<path fill-rule="evenodd" clip-rule="evenodd" d="M20.9769 22.9379C20.7104 23.1941 20.6489 23.5835 20.8232 23.9217C20.9564 24.1677 24.5124 25.9611 24.8711 25.9611C25.4245 25.9611 25.8139 25.2437 25.5372 24.7211C25.404 24.4751 21.848 22.6817 21.4893 22.6817C21.3458 22.6817 21.1101 22.7944 20.9769 22.9379Z" fill="#478CCB"/>
<path fill-rule="evenodd" clip-rule="evenodd" d="M20.9769 26.2173C20.7104 26.4735 20.6489 26.8629 20.8232 27.2011C20.9564 27.447 24.5124 29.2404 24.8711 29.2404C25.4245 29.2404 25.8139 28.5231 25.5372 28.0004C25.404 27.7545 21.848 25.9611 21.4893 25.9611C21.3458 25.9611 21.1101 26.0738 20.9769 26.2173Z" fill="#478CCB"/>
<path fill-rule="evenodd" clip-rule="evenodd" d="M20.9769 29.4966C20.7104 29.7528 20.6489 30.1423 20.8232 30.4804C20.9564 30.7264 24.5124 32.5198 24.8711 32.5198C25.4245 32.5198 25.8139 31.8024 25.5372 31.2798C25.404 31.0338 21.848 29.2404 21.4893 29.2404C21.3458 29.2404 21.1101 29.3532 20.9769 29.4966Z" fill="#478CCB"/>
<path fill-rule="evenodd" clip-rule="evenodd" d="M30.9482 10.4866C29.9541 10.9887 29.0831 11.4909 29.0216 11.6036C28.7449 12.1263 29.1343 12.8436 29.6877 12.8436C30.0464 12.8436 33.6024 11.0502 33.7356 10.8043C34.0123 10.2714 33.6229 9.55403 33.049 9.57452C32.8953 9.57452 31.9422 9.98444 30.9482 10.4866Z" fill="#478CCB"/>
<path fill-rule="evenodd" clip-rule="evenodd" d="M30.9482 13.766C29.9541 14.2681 29.0831 14.7703 29.0216 14.883C28.7449 15.4056 29.1343 16.123 29.6877 16.123C30.0464 16.123 33.6024 14.3296 33.7356 14.0836C34.0123 13.5507 33.6229 12.8334 33.049 12.8539C32.8953 12.8539 31.9422 13.2638 30.9482 13.766Z" fill="#478CCB"/>
<path fill-rule="evenodd" clip-rule="evenodd" d="M30.9482 17.0453C29.9541 17.5475 29.0831 18.0496 29.0216 18.1623C28.7449 18.685 29.1343 19.4024 29.6877 19.4024C30.0464 19.4024 33.6024 17.609 33.7356 17.363C34.0123 16.8301 33.6229 16.1127 33.049 16.1332C32.8953 16.1332 31.9422 16.5432 30.9482 17.0453Z" fill="#478CCB"/>
<path fill-rule="evenodd" clip-rule="evenodd" d="M30.9482 20.3247C29.9541 20.8268 29.0831 21.329 29.0216 21.4417C28.7449 21.9644 29.1343 22.6817 29.6877 22.6817C30.0464 22.6817 33.6024 20.8883 33.7356 20.6424C34.0123 20.1095 33.6229 19.3921 33.049 19.4126C32.8953 19.4126 31.9422 19.8225 30.9482 20.3247Z" fill="#478CCB"/>
<path fill-rule="evenodd" clip-rule="evenodd" d="M30.9482 23.604C29.9541 24.1062 29.0831 24.6083 29.0216 24.7211C28.7449 25.2437 29.1343 25.9611 29.6877 25.9611C30.0464 25.9611 33.6024 24.1677 33.7356 23.9217C34.0123 23.3888 33.6229 22.6715 33.049 22.692C32.8953 22.692 31.9422 23.1019 30.9482 23.604Z" fill="#478CCB"/>
<path fill-rule="evenodd" clip-rule="evenodd" d="M30.9482 26.8834C29.9541 27.3855 29.0831 27.8877 29.0216 28.0004C28.7449 28.5231 29.1343 29.2404 29.6877 29.2404C30.0464 29.2404 33.6024 27.447 33.7356 27.2011C34.0123 26.6682 33.6229 25.9508 33.049 25.9713C32.8953 25.9713 31.9422 26.3812 30.9482 26.8834Z" fill="#478CCB"/>
<path fill-rule="evenodd" clip-rule="evenodd" d="M30.9482 30.1628C29.9541 30.6649 29.0831 31.1671 29.0216 31.2798C28.7449 31.8024 29.1343 32.5198 29.6877 32.5198C30.0464 32.5198 33.6024 30.7264 33.7356 30.4804C34.0123 29.9475 33.6229 29.2302 33.049 29.2507C32.8953 29.2507 31.9422 29.6606 30.9482 30.1628Z" fill="#478CCB"/>
<path fill-rule="evenodd" clip-rule="evenodd" d="M6.25056 36.8239C5.99436 37.0904 5.95337 37.1929 6.00461 37.4696C6.08659 37.8897 6.40428 38.1562 6.82445 38.1562C7.64429 38.1562 7.91073 37.0391 7.18313 36.6702C6.76296 36.4448 6.59899 36.4755 6.25056 36.8239Z" fill="#478CCB"/>
<path fill-rule="evenodd" clip-rule="evenodd" d="M10.319 38.8223C9.71436 39.4167 10.3702 40.3698 11.1901 40.0931C11.5487 39.9598 11.7025 39.7344 11.7025 39.304C11.7025 38.6378 10.8109 38.3202 10.319 38.8223Z" fill="#478CCB"/>
<path fill-rule="evenodd" clip-rule="evenodd" d="M14.5616 40.6157C14.4694 40.667 14.3362 40.8514 14.2645 41.0256C13.9263 41.8352 14.9306 42.5218 15.5455 41.8967C16.2116 41.2408 15.3712 40.1443 14.5616 40.6157Z" fill="#478CCB"/>
<path fill-rule="evenodd" clip-rule="evenodd" d="M18.8043 42.5628C17.964 42.901 18.2202 44.1 19.1323 44.1C19.9419 44.1 20.1981 42.983 19.4807 42.6141C19.1528 42.4399 19.122 42.4399 18.8043 42.5628Z" fill="#478CCB"/>
<path fill-rule="evenodd" clip-rule="evenodd" d="M22.6985 44.6637C21.9607 45.1863 22.6678 46.3853 23.5081 46.0369C23.8566 45.8934 24 45.6577 24 45.2478C24 44.6534 23.2212 44.2947 22.6985 44.6637Z" fill="#478CCB"/>
<path fill-rule="evenodd" clip-rule="evenodd" d="M47.2425 36.8239C46.9863 37.0904 46.9453 37.1929 46.9966 37.4696C47.0785 37.8897 47.3962 38.1562 47.8164 38.1562C48.6362 38.1562 48.9027 37.0391 48.1751 36.6702C47.7549 36.4448 47.5909 36.4755 47.2425 36.8239Z" fill="#478CCB"/>
<path fill-rule="evenodd" clip-rule="evenodd" d="M43.1126 38.8223C42.5079 39.4167 43.1638 40.3698 43.9836 40.0931C44.3423 39.9598 44.496 39.7344 44.496 39.304C44.496 38.6378 43.6045 38.3202 43.1126 38.8223Z" fill="#478CCB"/>
<path fill-rule="evenodd" clip-rule="evenodd" d="M39.1569 40.6157C39.0646 40.667 38.9314 40.8514 38.8597 41.0256C38.5215 41.8352 39.5258 42.5218 40.1407 41.8967C40.8068 41.2408 39.9665 40.1443 39.1569 40.6157Z" fill="#478CCB"/>
<path fill-rule="evenodd" clip-rule="evenodd" d="M35.2011 42.5628C34.3608 42.901 34.617 44.1 35.5291 44.1C36.3387 44.1 36.5949 42.983 35.8775 42.6141C35.5496 42.4399 35.5188 42.4399 35.2011 42.5628Z" fill="#478CCB"/>
<path fill-rule="evenodd" clip-rule="evenodd" d="M30.897 44.6637C30.1591 45.1863 30.8662 46.3853 31.7066 46.0369C32.055 45.8934 32.1985 45.6577 32.1985 45.2478C32.1985 44.6534 31.4196 44.2947 30.897 44.6637Z" fill="#478CCB"/>
</svg>
