<svg width="51" height="51" viewBox="0 0 51 51" fill="none" xmlns="http://www.w3.org/2000/svg">
<path fill-rule="evenodd" clip-rule="evenodd" d="M8.7714 0.502522C8.58869 0.588505 8.40597 0.728228 8.36298 0.835707C8.33074 0.932438 8.2985 4.89842 8.2985 9.63825V18.2688L7.90082 18.6987C7.4924 19.1287 0.989913 30.2742 0.64598 31.1233C0.269803 32.0477 0.538501 33.2299 1.26936 33.8963C1.64554 34.2402 5.50404 36.4865 6.03069 36.6585C6.90127 36.9594 8.20177 36.6263 8.71766 35.9706L8.92188 35.7127L10.3299 37.4753L11.7378 39.238L11.4584 39.8399C10.749 41.4091 11.5014 43.1073 13.1566 43.6769L13.7154 43.8596L13.8444 44.526C14.0056 45.2676 14.2851 45.7835 14.7687 46.1919C15.3706 46.6971 15.9403 46.9228 16.6496 46.9335C17.0939 46.9407 17.3769 47.0804 17.4987 47.3527C17.7244 47.8471 18.4553 48.535 19.0142 48.7822C19.5086 48.9971 20.7123 49.0294 21.0885 48.8251C21.3035 48.7069 21.3572 48.7069 21.3895 48.8251C21.5077 49.1691 22.3245 49.8999 22.8404 50.1149C23.5175 50.4158 24.3774 50.4266 25.0437 50.1686C25.4629 49.9967 26.57 48.9326 26.57 48.6962C26.57 48.5242 26.8172 48.6317 28.1069 49.3625C29.7943 50.3191 30.4714 50.4588 31.5247 50.0289C32.2556 49.7387 33.008 48.7284 33.1799 47.8256C33.2552 47.4602 33.2874 47.4279 33.814 47.3204C34.115 47.256 34.5557 47.0732 34.7921 46.912C35.3188 46.5573 35.8884 45.7298 36.0389 45.1171C36.1463 44.6765 36.1678 44.655 36.673 44.6012C36.9632 44.569 37.3824 44.44 37.6188 44.3218C38.2207 44.0101 38.8978 43.204 39.0913 42.5591C39.2955 41.8713 39.2955 41.5918 39.0805 40.8824L38.9193 40.3235L39.36 39.8829C40.1876 39.0875 40.4778 38.0127 40.1768 36.9487C40.0693 36.6155 40.0048 36.3253 40.0263 36.3038C40.1338 36.1964 41.6923 35.3903 41.7783 35.401C41.8427 35.401 42.0147 35.5837 42.1652 35.8094C42.7133 36.6048 43.9923 36.9917 44.9596 36.6585C45.497 36.4758 49.3555 34.2402 49.721 33.907C50.4518 33.2299 50.7205 32.0369 50.3443 31.1233C50.0004 30.2742 43.4979 19.1287 43.1002 18.6987L42.6918 18.2688V9.6275C42.6918 4.18906 42.6488 0.910942 42.5843 0.781967C42.5306 0.674488 42.3264 0.534765 42.1437 0.470278C41.8965 0.384295 37.1244 0.352051 25.4522 0.352051C11.9743 0.362799 9.05085 0.384295 8.7714 0.502522ZM40.9722 10.0144V17.9464L40.6497 18.0216C40.3165 18.0861 36.4795 20.2572 35.8562 20.7301C35.3617 21.0955 34.9533 21.9769 34.9533 22.6647V23.2236L34.4482 23.3311C32.6318 23.7288 30.321 23.7503 28.5046 23.4171C26.1293 22.9657 25.291 22.8797 24.4526 22.9979C23.4638 23.1376 22.1418 23.761 21.3357 24.4704L20.7876 24.9648L18.4338 24.1264L16.0907 23.2989L16.0262 22.5895C15.951 21.7082 15.5748 21.0095 14.93 20.5796C13.9949 19.9455 10.6523 18.0754 10.3406 18.0216L10.0182 17.9464V2.07172H40.9722V10.0144ZM41.8965 19.9562C42.2834 20.3432 48.8181 31.8005 48.8181 32.0692C48.8181 32.2089 48.7429 32.4131 48.6677 32.5098C48.442 32.8108 44.4545 35.0678 44.1535 35.0678C44.0031 35.0678 43.7666 34.9603 43.6269 34.8206C43.2292 34.4552 36.673 22.9979 36.673 22.6755C36.673 22.2348 37.0384 21.9446 38.8226 20.9236C41.4666 19.4189 41.4021 19.4403 41.8965 19.9562ZM11.9313 20.7838C13.9519 21.9446 14.3173 22.2348 14.3173 22.6755C14.3173 22.9979 7.7611 34.4552 7.36343 34.8206C7.2237 34.9603 6.98725 35.0678 6.83678 35.0678C6.53584 35.0678 2.54836 32.8108 2.32266 32.5098C2.24742 32.4131 2.17218 32.2089 2.17218 32.0692C2.17218 31.8112 8.67467 20.4077 9.08309 19.9348C9.49152 19.4941 9.85694 19.6016 11.9313 20.7838ZM27.4298 24.9863C29.0205 25.2872 29.4074 25.3195 31.2453 25.3195C32.9327 25.3302 33.4809 25.2872 34.4159 25.0938C35.0393 24.9648 35.5982 24.8573 35.6627 24.8573C35.7487 24.8573 40.1231 32.2734 40.9399 33.7996C40.9722 33.8748 38.6936 35.0678 38.5001 35.0678C38.4356 35.0678 36.0819 33.7243 33.2552 32.0906C30.4392 30.457 27.8919 29.0275 27.591 28.92C26.4947 28.5331 25.1297 28.7803 23.3456 29.6616L22.5395 30.07L21.8301 31.4995C21.4432 32.2841 20.9595 33.0902 20.7661 33.2944C20.2609 33.8211 19.0679 34.1865 18.8852 33.8855C18.8422 33.8211 18.8637 32.6925 18.9282 31.3813L19.0464 28.9952L20.5296 27.5658C22.9909 25.1797 23.7755 24.6853 25.1727 24.6531C25.4414 24.6423 26.4517 24.7928 27.4298 24.9863ZM17.3697 25.5774L19.4011 26.2975L18.423 27.2433C17.8749 27.7592 17.4127 28.2966 17.3912 28.4256C17.359 28.5653 17.2838 29.8121 17.2193 31.2093C17.058 34.5089 17.1763 34.9818 18.2511 35.4977C18.9712 35.8524 19.874 35.7557 20.938 35.229C21.9376 34.7454 22.4642 34.1113 23.2596 32.4668L23.8185 31.3168L24.7106 30.9299C25.7209 30.4892 26.4947 30.3602 26.9999 30.5322C27.6125 30.7472 38.0057 36.809 38.3174 37.1207C38.6399 37.4754 38.6829 37.83 38.4464 38.2922C38.2422 38.7006 37.8875 38.9371 37.5006 38.9371C37.2964 38.9371 36.4903 38.5394 35.2435 37.8085C33.1692 36.6048 32.8467 36.4973 32.4061 36.9165C32.1266 37.1744 32.0836 37.6903 32.2986 37.9913C32.3738 38.088 33.4486 38.7544 34.6846 39.4637C36.9524 40.775 37.5328 41.2264 37.5328 41.6348C37.5328 42.0432 37.1889 42.6021 36.8127 42.7848C36.3291 43.0105 36.2968 42.9998 33.4056 41.3124C31.9762 40.474 30.8799 39.9044 30.7079 39.9044C30.1275 39.9044 29.7191 40.6567 30.0093 41.1941C30.063 41.3016 31.0196 41.9142 32.1159 42.5484C33.7066 43.4834 34.158 43.7844 34.287 44.0531C34.4804 44.483 34.4052 44.8484 33.9968 45.2998C33.4916 45.8695 33.2337 45.7942 30.8691 44.4078C28.6013 43.0858 28.3219 42.9998 27.8919 43.4942C27.6018 43.8274 27.5803 44.1606 27.806 44.4937C27.8919 44.612 28.6873 45.1386 29.5794 45.6545C30.4714 46.1704 31.2775 46.7078 31.3743 46.8475C31.6 47.2022 31.4925 47.8041 31.1271 48.2018C30.6542 48.6854 30.2565 48.6209 28.8808 47.8148L27.6985 47.1377L27.7415 46.4714C27.763 46.0952 27.72 45.5793 27.6447 45.3213C27.462 44.6872 26.7419 43.8919 26.0433 43.5587C25.6349 43.376 25.5059 43.2577 25.5489 43.1395C25.5919 43.0428 25.6456 42.7418 25.6779 42.4731C25.8391 41.1511 24.7213 39.7432 23.2703 39.4315C22.9694 39.367 22.9157 39.2918 22.8512 38.9586C22.5502 37.2496 20.7231 36.1104 19.1324 36.6478L18.5198 36.852L18.1436 36.4006C17.6062 35.7557 16.8108 35.3903 15.9618 35.3903C14.8225 35.3903 14.2098 35.7772 13.35 37.0454C13.0813 37.4324 12.8341 37.7548 12.8019 37.7548C12.6836 37.7548 9.89994 34.1865 9.93218 34.0575C9.98592 33.8318 15.1987 24.8573 15.2739 24.8573C15.3061 24.8573 16.252 25.1797 17.3697 25.5774ZM16.7464 37.4753C17.3482 38.0772 17.2945 38.3029 15.9295 40.2376C14.6935 42.0002 14.4033 42.2582 13.8229 42.1185C13.35 42.0002 12.9201 41.4843 12.9201 41.0329C12.9201 40.7105 13.1136 40.3665 14.0164 39.0768C14.6075 38.217 15.1987 37.4216 15.3169 37.3141C15.4566 37.1852 15.6931 37.1099 15.9618 37.1099C16.2949 37.1099 16.4562 37.1852 16.7464 37.4753ZM20.6264 38.4642C21.024 38.7114 21.2282 39.2165 21.0993 39.5927C20.9488 40.0226 17.5847 44.7947 17.2408 45.0634C16.8968 45.3428 16.5851 45.3321 16.1337 45.0311C15.6716 44.7194 15.4459 44.3218 15.5318 43.9671C15.5963 43.7091 18.7132 39.1628 19.1969 38.6254C19.616 38.1632 20.089 38.1095 20.6264 38.4642ZM23.6465 41.5703C24.2377 42.2044 24.2699 42.1292 21.9483 45.4181C21.2712 46.3854 20.7016 47.084 20.5189 47.17C20.1105 47.3849 19.6698 47.2774 19.2614 46.869C18.8529 46.4606 18.8315 45.9984 19.2184 45.4288C20.4006 43.6769 22.0128 41.4843 22.2493 41.2909C22.6577 40.9684 23.1844 41.0759 23.6465 41.5703ZM25.2265 45.0634C25.6671 45.2353 26.0326 45.6975 26.0326 46.0952C26.0326 46.5681 24.818 48.3737 24.3666 48.5672C23.926 48.7499 23.5068 48.6424 23.1306 48.2663C22.6255 47.7719 22.69 47.4064 23.4746 46.2457C24.2914 45.0419 24.6031 44.8269 25.2265 45.0634Z" fill="#478CCB"/>
<path fill-rule="evenodd" clip-rule="evenodd" d="M18.0254 5.7475C17.9071 5.81199 17.3375 6.32789 16.7679 6.88678L15.7146 7.91858L15.2524 7.46717C14.6828 6.90828 14.1454 6.84379 13.7907 7.2952C13.3823 7.8111 13.479 8.04756 14.5215 9.09011C15.8113 10.3799 15.7253 10.3906 17.7352 8.38074C19.4333 6.66108 19.5193 6.49986 18.9497 5.93022C18.6165 5.59703 18.38 5.55404 18.0254 5.7475Z" fill="#478CCB"/>
<path fill-rule="evenodd" clip-rule="evenodd" d="M22.7437 7.16625C22.2063 7.4027 22.0881 8.10132 22.518 8.49899L22.7652 8.73544H36.8987L37.1567 8.46675C37.5006 8.13356 37.5006 7.75738 37.1674 7.37046L36.9095 7.06952L29.9878 7.04802C24.3559 7.02653 23.0124 7.04802 22.7437 7.16625Z" fill="#478CCB"/>
<path fill-rule="evenodd" clip-rule="evenodd" d="M18.1221 14.98C18.0146 15.023 17.4557 15.5174 16.8968 16.087C16.338 16.6566 15.8328 17.1188 15.7683 17.1188C15.7038 17.1188 15.4566 16.9253 15.2309 16.6889C14.9192 16.3664 14.7258 16.259 14.4678 16.259C14.0271 16.259 13.694 16.5384 13.608 16.9898C13.5435 17.323 13.5865 17.3982 14.5001 18.3118C15.2632 19.0749 15.5211 19.2684 15.7683 19.2684C16.0155 19.2684 16.3594 18.9997 17.6707 17.6777C19.3796 15.9688 19.4763 15.8075 19.0464 15.2702C18.8207 14.9692 18.4445 14.851 18.1221 14.98Z" fill="#478CCB"/>
<path fill-rule="evenodd" clip-rule="evenodd" d="M22.5072 16.5062C22.2708 16.7534 22.2063 17.151 22.3353 17.495C22.518 17.9679 22.6147 17.9786 29.9018 17.9786H36.802L37.1244 17.6562C37.3931 17.3768 37.4361 17.2693 37.3823 16.9791C37.3501 16.7856 37.2104 16.5492 37.0922 16.4417C36.8772 16.2697 36.372 16.259 29.8051 16.259H22.7329L22.5072 16.5062Z" fill="#478CCB"/>
</svg>
