<svg width="52" height="51" viewBox="0 0 52 51" fill="none" xmlns="http://www.w3.org/2000/svg">
<path fill-rule="evenodd" clip-rule="evenodd" d="M29.9436 2.46036C28.6743 3.73941 26.4189 6.02412 24.925 7.5375L22.2107 10.3006H2.00956L1.77523 10.5447L0.945312 10.7791V28.1585C0.945312 40.6853 1.56043 45.6062 1.63854 45.7722C1.81428 46.153 2.12672 46.2311 3.43506 46.2311H4.65553V47.8421C4.65553 49.5508 4.71411 49.8535 5.11442 50.0292C5.44639 50.1854 33.5464 50.1854 33.8783 50.0292C34.142 49.912 34.3372 49.5703 34.3372 49.2383C34.3372 49.1016 33.8588 48.5451 32.9508 47.6371L31.5741 46.2409L38.9848 46.2116L46.3954 46.1823L47.1961 45.9089C49.0902 45.2743 50.4962 43.8683 51.2089 41.9156L51.4726 41.2028L51.5019 25.4637C51.5311 7.8597 51.5702 8.98253 50.8282 7.46915C49.8127 5.42853 47.5866 4.05185 45.2726 4.05185C42.9586 4.05185 40.7325 5.42853 39.717 7.46915C39.3265 8.27954 39.0336 9.34378 39.0238 9.97843V10.3006H31.164L31.9939 9.45119C32.4528 8.97276 33.6635 7.73277 34.6985 6.68805C35.8116 5.55546 36.5927 4.67673 36.6317 4.53027C36.6708 4.36429 36.6415 4.15925 36.5536 3.99327C36.4657 3.83705 35.5968 2.90949 34.6106 1.92336C33.107 0.439274 32.7653 0.146362 32.5309 0.146362C32.2966 0.146362 31.8963 0.497856 29.9436 2.46036ZM33.6733 3.17312C34.2298 3.7687 34.679 4.29594 34.679 4.34476C34.679 4.50098 32.6579 6.60018 32.5309 6.57089C32.4626 6.55136 31.9451 6.04365 31.3593 5.4383L30.3146 4.34476L31.3691 3.2317C31.9549 2.61658 32.4821 2.10887 32.5505 2.10887C32.6091 2.09911 33.1168 2.58729 33.6733 3.17312ZM30.3341 6.63924L31.4472 7.76206L31.164 8.05497L30.8809 8.34789L29.7288 7.20553L28.5766 6.06318L28.8403 5.78979C28.9867 5.64334 29.1234 5.51641 29.1625 5.51641C29.1918 5.51641 29.719 6.02412 30.3341 6.63924ZM46.1611 5.71168C47.4401 5.95577 48.7582 6.92238 49.3636 8.05497C49.9787 9.19733 49.9592 8.68962 49.9592 22.8763V35.8035L49.4026 35.2957C48.3384 34.3487 46.7176 33.7336 45.2726 33.7336C43.8276 33.7336 42.2068 34.3487 41.1523 35.2957L40.586 35.8035V22.8763C40.586 8.68962 40.5665 9.19733 41.1816 8.05497C41.5819 7.30317 42.4606 6.46349 43.2515 6.09247C44.2376 5.63357 45.1359 5.51641 46.1611 5.71168ZM29.2308 10.0077C28.9477 10.3006 26.497 12.8001 23.7924 15.5633L18.8617 20.5721L18.7348 20.2499C18.5591 19.8007 17.28 18.5314 16.8895 18.3948L16.5673 18.2874L22.0057 12.7513L27.4538 7.20553L28.5962 8.33812L29.7483 9.47071L29.2308 10.0077ZM19.9357 12.6439L19.1546 13.425H5.13395L4.89962 13.6691L4.65553 13.9034V18.8927H6.21772V14.9872H17.6803L16.001 16.6861C15.0734 17.6137 14.3216 18.4338 14.3216 18.4924C14.3216 18.551 13.8432 19.8398 13.2476 21.3434C12.6618 22.847 12.1736 24.2042 12.1736 24.3506C12.1736 24.4873 12.2419 24.7021 12.32 24.8193C12.6325 25.2684 12.8375 25.2196 15.9717 23.9503L18.9301 22.7494L22.7379 18.8634L26.5458 14.9872H39.0238V18.1116H38.106C36.8758 18.1116 36.7586 18.1995 36.6708 19.2442C36.6317 19.6738 36.5927 20.3573 36.5927 20.7673C36.5829 21.6363 36.5243 21.7339 35.7823 21.978C35.4991 22.0659 35.0207 22.2612 34.7278 22.4076L34.181 22.681L33.1656 21.7632C31.9842 20.699 31.6913 20.5135 31.3202 20.6014C31.0273 20.6697 27.7662 23.8624 27.5319 24.3018C27.4538 24.4483 27.4148 24.6826 27.444 24.8095C27.4831 24.9364 27.9615 25.5516 28.5181 26.1764L29.5432 27.3286L29.2894 27.8167C29.1527 28.0901 28.9379 28.5978 28.8207 28.9493C28.5766 29.6718 28.5278 29.7011 27.405 29.7304C27.0047 29.7304 26.37 29.7695 25.999 29.8183C25.0617 29.9159 24.9641 30.0526 24.9641 31.2536V32.1714H21.8397V31.234C21.8397 29.9843 21.7127 29.5937 21.1074 28.9981C20.5509 28.4319 20.1115 28.2659 19.223 28.2659C18.52 28.2659 18.188 28.1389 18.0416 27.807C17.8854 27.4652 17.9049 27.2504 18.1197 26.9868C18.3052 26.7525 18.3247 26.7525 20.7852 26.7037C23.0797 26.6549 23.2847 26.6353 23.646 26.4401C24.1537 26.1667 24.5149 25.7761 24.759 25.2391C24.9152 24.8876 24.9641 24.5947 24.9641 23.7941V22.7982H23.4019V23.6281C23.4019 24.5459 23.2945 24.8779 22.943 25.0341C22.7965 25.1024 21.9275 25.1415 20.5509 25.1415C17.9928 25.1415 17.7877 25.1903 17.1043 25.8738C16.3622 26.606 16.1767 27.4848 16.577 28.3635C17.0164 29.3496 17.6608 29.7304 18.9984 29.8183C20.2091 29.8964 20.2775 29.9745 20.2775 31.2536V32.1714H17.4948L11.6366 26.3131C6.2763 20.9528 5.74906 20.4549 5.45615 20.4549C5.24135 20.4549 5.05584 20.533 4.89962 20.699L4.65553 20.9333V44.6689H3.09333V11.8628H20.7168L19.9357 12.6439ZM39.0238 12.6439V13.425H28.0396L28.8207 12.6439L29.6018 11.8628H39.0238V12.6439ZM16.0986 19.791C16.3525 19.8691 16.6063 20.0643 16.8992 20.3963C17.3191 20.904 17.612 21.5094 17.4753 21.6265C17.3679 21.7242 14.3997 22.9056 14.3607 22.8763C14.3509 22.8568 14.5755 22.2319 14.8781 21.4801C15.1711 20.7283 15.4542 20.0155 15.503 19.8886C15.5681 19.7194 15.7666 19.6868 16.0986 19.791ZM39.0043 22.4272L38.975 25.1903L38.4673 25.2586C37.2859 25.4344 35.8018 26.1179 34.8254 26.9478C33.3999 28.1682 32.5309 29.6426 32.1599 31.4586L32.0232 32.1225L29.2796 32.1518L26.5263 32.1714V31.3219L27.9615 31.2536C28.9574 31.2048 29.4749 31.1462 29.6214 31.0485C29.7678 30.9509 29.9143 30.6287 30.09 30.0526C30.2365 29.584 30.5684 28.7736 30.8321 28.2463C31.1738 27.5629 31.3007 27.2212 31.2519 27.0552C31.2226 26.9185 30.7637 26.3327 30.2365 25.7468L29.2699 24.6826L30.4122 23.55L31.5546 22.4174L32.5798 23.345C33.1461 23.8624 33.7124 24.3213 33.8393 24.3701C34.0346 24.4483 34.2689 24.3701 35.2062 23.9308C35.8311 23.6379 36.661 23.3059 37.0515 23.1887C37.5202 23.052 37.8034 22.9154 37.901 22.7689C37.9889 22.6224 38.0572 22.1343 38.0963 21.236C38.1353 20.5135 38.1744 19.8593 38.2037 19.791C38.2232 19.7226 38.3989 19.6738 38.6333 19.6738H39.0238L39.0043 22.4272ZM18.9594 35.8816L31.6522 48.5744H6.21772V35.8816C6.21772 28.9005 6.22748 23.1887 6.24701 23.1887C6.25678 23.1887 11.9783 28.9005 18.9594 35.8816ZM39.0238 29.4863V32.1714H33.6538V31.9273C33.6538 31.5465 34.015 30.5408 34.4056 29.8281C34.8645 29.0079 35.958 27.9241 36.7782 27.4945C37.4909 27.1138 38.3501 26.8111 38.7602 26.8111L39.0238 26.8013V29.4863ZM39.0433 37.4633C39.0629 39.5234 39.1117 41.2809 39.1605 41.3688C39.2386 41.5348 38.9067 41.5445 33.0582 41.5445H26.868L22.9625 37.639L19.057 33.7336H39.0141L39.0433 37.4633ZM46.1611 35.3934C47.4499 35.6375 48.8364 36.6724 49.4222 37.8246C50.711 40.3729 49.4808 43.4192 46.7762 44.3858C45.9658 44.6787 44.5794 44.6787 43.769 44.3858C40.4493 43.1946 39.5315 39.0255 42.0603 36.6138C43.1734 35.5496 44.6575 35.1102 46.1611 35.3934ZM40.1369 43.4973C40.2833 43.7218 40.5567 44.0733 40.752 44.2784L41.0937 44.6689H29.9924L29.2113 43.8878L28.4302 43.1067H39.8733L40.1369 43.4973Z" fill="#478CCB"/>
<path fill-rule="evenodd" clip-rule="evenodd" d="M23.4019 20.4549V21.236H24.183H24.9641V20.4549V19.6738H24.183H23.4019V20.4549Z" fill="#478CCB"/>
<path fill-rule="evenodd" clip-rule="evenodd" d="M8.80511 30.0722L8.56101 30.3065V37.9222C8.56101 43.2922 8.5903 45.6062 8.66841 45.7722C8.727 45.9089 8.88321 46.0651 9.01991 46.1237C9.35187 46.2799 24.1732 46.2799 24.5149 46.1237C24.7981 45.987 25.0129 45.5476 24.925 45.2352C24.8957 45.1083 21.4589 41.5933 17.28 37.4145C10.299 30.4529 9.65455 29.8281 9.36164 29.8281C9.14684 29.8281 8.96132 29.9062 8.80511 30.0722ZM14.6633 37.0532L19.1546 41.5445H10.1232V37.0532C10.1232 34.583 10.133 32.5619 10.1525 32.5619C10.1623 32.5619 12.1931 34.583 14.6633 37.0532ZM21.4979 43.8878L22.279 44.6689H10.1232V43.1067H20.7168L21.4979 43.8878Z" fill="#478CCB"/>
<path fill-rule="evenodd" clip-rule="evenodd" d="M29.6507 36.0768V36.8579H30.4317H31.2128V36.0768V35.2957H30.4317H29.6507V36.0768Z" fill="#478CCB"/>
<path fill-rule="evenodd" clip-rule="evenodd" d="M32.775 36.0768V36.8579H33.5561H34.3372V36.0768V35.2957H33.5561H32.775V36.0768Z" fill="#478CCB"/>
<path fill-rule="evenodd" clip-rule="evenodd" d="M35.8994 36.0768V36.8579H36.6805H37.4616V36.0768V35.2957H36.6805H35.8994V36.0768Z" fill="#478CCB"/>
<path fill-rule="evenodd" clip-rule="evenodd" d="M27.3074 39.2012V39.9823H32.3845H37.4616V39.2012V38.4201H32.3845H27.3074V39.2012Z" fill="#478CCB"/>
<path fill-rule="evenodd" clip-rule="evenodd" d="M44.3939 36.9653C43.8373 37.1313 43.0562 37.7171 42.734 38.2053C41.6405 39.8554 42.2263 41.9644 44.0033 42.804C44.7649 43.1555 45.7803 43.1555 46.5419 42.804C48.5239 41.8765 48.9828 39.2696 47.4401 37.766C46.8543 37.1997 46.2392 36.9263 45.4288 36.897C45.048 36.8775 44.5794 36.9068 44.3939 36.9653ZM45.8877 38.5568C46.5516 38.8302 46.9324 39.5723 46.7957 40.3241C46.7079 40.7732 46.1904 41.3004 45.6827 41.4469C45.1359 41.6129 44.5598 41.4469 44.1302 40.9978C43.0074 39.7968 44.3646 37.9124 45.8877 38.5568Z" fill="#478CCB"/>
</svg>
