<svg width="51" height="51" viewBox="0 0 51 51" fill="none" xmlns="http://www.w3.org/2000/svg">
<path fill-rule="evenodd" clip-rule="evenodd" d="M23.9781 0.152603C17.9853 0.90958 13.2963 5.23066 12.0977 11.0972C11.0674 16.1332 13.1491 23.5873 17.7856 31.5356L18.5215 32.7972L12.7075 32.8498C7.72409 32.8918 6.87249 32.9234 6.73581 33.0601C6.5676 33.2283 0.469727 49.1563 0.469727 49.4192C0.469727 49.5033 0.585376 49.6925 0.732566 49.8292L0.984891 50.092H49.9991L50.2515 49.8292C50.3987 49.6925 50.5143 49.5033 50.5143 49.4192C50.5143 49.1563 44.4164 33.2283 44.2482 33.0601C44.1115 32.9234 43.2599 32.8918 38.2765 32.8498L32.452 32.7972L33.3456 31.2728C34.4391 29.4013 36.1212 25.9844 36.8256 24.2287C38.8758 19.1086 39.5697 14.5352 38.8442 10.9816C37.7508 5.64069 33.5664 1.45629 28.2361 0.362874C27.027 0.121062 25.0294 0.0159267 23.9781 0.152603ZM26.8062 1.6245C29.6238 1.95042 32.084 3.13846 34.0711 5.13603C37.7403 8.81578 38.5499 13.4523 36.689 20.0758C35.4904 24.3233 32.9146 29.5065 29.3505 34.8474C28.1204 36.6978 25.6182 40.1042 25.492 40.1042C25.3764 40.1042 22.9162 36.7819 21.7912 35.1102C15.0731 25.1013 12.2029 16.4171 13.7168 10.6346C14.6315 7.16515 17.3019 4.0216 20.5401 2.61278C22.6323 1.70861 24.672 1.38269 26.8062 1.6245ZM15.4305 39.9149C17.7856 42.9849 19.7096 45.5081 19.6885 45.5186C19.6675 45.5292 17.7015 46.2336 15.3149 47.0852L10.9728 48.6201H6.67273C4.13896 48.6201 2.36217 48.5781 2.36217 48.5255C2.36217 48.473 3.47661 45.4976 4.84337 41.923C6.21013 38.3484 7.41919 35.1733 7.53484 34.8684L7.7346 34.3217H9.4378L11.141 34.3322L15.4305 39.9149ZM20.4455 35.7621C21.4338 37.234 24.1252 40.8716 24.7771 41.6181C25.2817 42.1964 25.7023 42.1964 26.2069 41.6181C26.8798 40.8506 29.5608 37.2234 30.5385 35.7621L31.5058 34.3217H43.2494L43.4492 34.8684C43.5648 35.1733 43.7751 35.741 43.9223 36.13L44.1956 36.8344L43.9644 36.908C43.8382 36.9396 38.7391 38.7479 32.6412 40.9242C26.5434 43.09 21.4548 44.8878 21.3392 44.9089C21.1709 44.9404 20.4876 44.0993 17.8487 40.6614C16.0403 38.2958 14.2004 35.9092 13.7694 35.3415L12.9704 34.3217H19.4783L20.4455 35.7621ZM46.6874 43.3528C47.7492 46.1389 48.6219 48.473 48.6219 48.5255C48.6219 48.5886 47.3182 48.6096 45.3416 48.5991L42.0509 48.5676L39.2438 44.9404C37.6983 42.9428 36.4577 41.2712 36.4682 41.2081C36.4997 41.1029 44.5111 38.2117 44.6582 38.2433C44.7108 38.2643 45.615 40.5562 46.6874 43.3528ZM36.5523 43.8365C37.4354 44.993 38.6235 46.5385 39.1912 47.2849L40.2215 48.6201L27.8891 48.6096C20.0355 48.6096 15.6303 48.5676 15.767 48.5045C16.1349 48.3363 34.7965 41.7022 34.8701 41.7127C34.9017 41.7232 35.6586 42.68 36.5523 43.8365Z" fill="#478CCB"/>
<path fill-rule="evenodd" clip-rule="evenodd" d="M23.936 7.72239C22.8216 8.01677 21.97 8.51091 21.1184 9.35199C18.1641 12.2958 18.921 17.2687 22.6113 19.2032C25.0294 20.4753 27.9206 20.0338 29.8446 18.0888C30.6121 17.3213 31.0957 16.5433 31.4427 15.5024C31.716 14.6929 31.716 12.7374 31.4427 11.9278C30.917 10.3823 29.75 8.95248 28.4674 8.2691C27.0901 7.54366 25.4079 7.33339 23.936 7.72239ZM26.5329 9.09967C29.5397 9.78305 31.0957 13.1789 29.6869 15.944C29.3925 16.5117 28.4989 17.4474 27.9312 17.7839C24.7771 19.6343 20.7609 17.3528 20.7609 13.7151C20.7609 11.5809 22.3379 9.58329 24.4091 9.09967C24.9558 8.9735 25.9756 8.96299 26.5329 9.09967Z" fill="#478CCB"/>
</svg>
