<svg width="14" height="14" viewBox="0 0 14 14" fill="none" xmlns="http://www.w3.org/2000/svg">
<path d="M11.2051 8.64017C10.939 8.36305 10.618 8.21489 10.2777 8.21489C9.94026 8.21489 9.6165 8.36031 9.33938 8.63743L8.47234 9.50172C8.40101 9.4633 8.32967 9.42763 8.26107 9.39196C8.1623 9.34258 8.06901 9.29593 7.98944 9.24654C7.17728 8.73072 6.43921 8.05849 5.73131 7.18871C5.38834 6.7552 5.15786 6.39028 4.99049 6.01987C5.21548 5.81408 5.42401 5.60007 5.62705 5.39429C5.70388 5.31746 5.7807 5.23789 5.85753 5.16107C6.43372 4.58487 6.43372 3.83857 5.85753 3.26237L5.10848 2.51332C5.02342 2.42827 4.93562 2.34047 4.85331 2.25267C4.68868 2.08255 4.51582 1.90695 4.33748 1.74232C4.07133 1.47892 3.75305 1.33899 3.41831 1.33899C3.08357 1.33899 2.75981 1.47892 2.48543 1.74232C2.48268 1.74507 2.48268 1.74507 2.47994 1.74781L1.54706 2.68893C1.19585 3.04013 0.995559 3.46816 0.951659 3.96478C0.885808 4.76596 1.12177 5.51227 1.30286 6.00066C1.74735 7.19969 2.41135 8.31092 3.40185 9.50172C4.60362 10.9367 6.04959 12.0699 7.70134 12.8683C8.33241 13.1674 9.17475 13.5213 10.1159 13.5817C10.1735 13.5845 10.2338 13.5872 10.2887 13.5872C10.9225 13.5872 11.4548 13.3595 11.8719 12.9067C11.8746 12.9013 11.8801 12.8985 11.8829 12.893C12.0255 12.7202 12.1902 12.5638 12.363 12.3964C12.481 12.2839 12.6017 12.1659 12.7197 12.0425C12.9913 11.7598 13.134 11.4306 13.134 11.0931C13.134 10.7529 12.9886 10.4264 12.7115 10.152L11.2051 8.64017ZM12.1874 11.5294C12.1847 11.5294 12.1847 11.5321 12.1874 11.5294C12.0804 11.6446 11.9707 11.7489 11.8527 11.8641C11.6743 12.0342 11.4932 12.2126 11.3231 12.4129C11.046 12.7092 10.7195 12.8491 10.2915 12.8491C10.2503 12.8491 10.2064 12.8491 10.1653 12.8464C9.35035 12.7942 8.59307 12.476 8.02511 12.2043C6.47213 11.4525 5.10848 10.3852 3.9753 9.03253C3.03967 7.90484 2.41409 6.86221 1.99978 5.74275C1.74461 5.05955 1.65132 4.52725 1.69248 4.02514C1.71992 3.70412 1.84339 3.43798 2.07112 3.21024L3.00675 2.27462C3.14119 2.1484 3.28387 2.07981 3.4238 2.07981C3.59666 2.07981 3.73659 2.18407 3.82439 2.27187C3.82713 2.27462 3.82988 2.27736 3.83262 2.2801C3.99999 2.4365 4.15913 2.59838 4.3265 2.77124C4.41156 2.85904 4.49936 2.94684 4.58716 3.03739L5.33621 3.78644C5.62705 4.07728 5.62705 4.34617 5.33621 4.63701C5.25664 4.71657 5.17981 4.79614 5.10024 4.87297C4.86977 5.10893 4.65027 5.32844 4.41156 5.54245C4.40607 5.54794 4.40058 5.55068 4.39784 5.55617C4.16187 5.79213 4.20578 6.02261 4.25516 6.17901C4.25791 6.18724 4.26065 6.19547 4.26339 6.2037C4.4582 6.67563 4.73258 7.12012 5.14963 7.64967L5.15238 7.65241C5.90966 8.5853 6.7081 9.3124 7.58885 9.86938C7.70134 9.94072 7.81658 9.99834 7.92633 10.0532C8.02511 10.1026 8.1184 10.1492 8.19797 10.1986C8.20894 10.2041 8.21992 10.2124 8.23089 10.2178C8.32418 10.2645 8.41198 10.2864 8.50252 10.2864C8.73026 10.2864 8.87293 10.1438 8.91958 10.0971L9.85795 9.15874C9.95124 9.06546 10.0994 8.95296 10.2723 8.95296C10.4424 8.95296 10.5823 9.05997 10.6674 9.15326C10.6701 9.156 10.6701 9.156 10.6729 9.15874L12.1847 10.6706C12.4673 10.9504 12.4673 11.2385 12.1874 11.5294Z" fill="white"/>
<path d="M7.95657 3.67938C8.67544 3.80011 9.32845 4.14034 9.84977 4.66165C10.3711 5.18297 10.7086 5.83599 10.832 6.55486C10.8622 6.73595 11.0186 6.86216 11.197 6.86216C11.2189 6.86216 11.2381 6.85942 11.2601 6.85667C11.4631 6.82375 11.5976 6.63168 11.5646 6.42864C11.4165 5.55887 11.0049 4.76592 10.3766 4.13759C9.74825 3.50927 8.9553 3.0977 8.08552 2.94954C7.88249 2.91661 7.69316 3.05106 7.6575 3.25135C7.62183 3.45165 7.75353 3.64646 7.95657 3.67938Z" fill="white"/>
<path d="M13.916 6.32168C13.6718 4.88943 12.9969 3.58614 11.9597 2.54899C10.9226 1.51185 9.61927 0.836879 8.18702 0.592683C7.98672 0.557014 7.7974 0.694203 7.76173 0.894498C7.72881 1.09754 7.86325 1.28686 8.06629 1.32253C9.34489 1.53929 10.511 2.14566 11.4384 3.07031C12.3658 3.99771 12.9694 5.16381 13.1862 6.44241C13.2164 6.6235 13.3727 6.74971 13.5511 6.74971C13.573 6.74971 13.5923 6.74697 13.6142 6.74422C13.8145 6.71404 13.9517 6.52198 13.916 6.32168Z" fill="white"/>
</svg>
