<svg width="51" height="51" viewBox="0 0 51 51" fill="none" xmlns="http://www.w3.org/2000/svg">
<path fill-rule="evenodd" clip-rule="evenodd" d="M11.5225 0.935687C11.1385 1.13258 10.9121 1.33932 10.6955 1.69373C10.41 2.14659 10.4002 2.22535 10.3706 3.4461C10.3411 4.46011 10.3706 4.81452 10.4986 5.14924C10.6955 5.67102 11.1484 6.14356 11.68 6.37984C12.0541 6.55704 12.6546 6.56689 23.7497 6.56689H35.4354L39.1075 5.34614C42.7107 4.14508 43.0355 4.00725 43.0355 3.61346C43.0355 3.21967 42.7107 3.08184 39.1075 1.88078L35.4354 0.660034H12.0442L11.5225 0.935687ZM14.2888 3.61346V5.38552H13.3044C11.7095 5.38552 11.5323 5.19847 11.5323 3.58393C11.5422 2.01861 11.7095 1.85125 13.2847 1.84141H14.2888V3.61346ZM34.7659 3.61346V5.38552H15.4702V1.84141H34.7659V3.61346ZM40.4759 3.61346C40.4759 3.643 39.4619 4.00725 38.2116 4.42073L35.9473 5.16893V2.05799L38.2116 2.80619C39.4619 3.21967 40.4759 3.58393 40.4759 3.61346Z" fill="#478CCB"/>
<path fill-rule="evenodd" clip-rule="evenodd" d="M42.1987 6.96068L37.4733 11.6862H9.16959V9.52032C9.16959 7.46276 9.15975 7.34463 8.96285 7.14773C8.76596 6.95084 8.67735 6.95084 5.94051 6.98037C3.31196 7.00991 3.08553 7.01975 2.66221 7.21665C2.01245 7.52183 1.5399 7.98454 1.22487 8.6146L0.949219 9.17575V48.4563L1.22487 49.0175C1.5399 49.6475 2.01245 50.1103 2.66221 50.4154L3.11507 50.6222L26.8114 50.6517C50.429 50.6714 50.5176 50.6714 50.7145 50.4745C50.9114 50.2776 50.9114 50.1693 50.9114 31.1788C50.9114 12.1882 50.9114 12.08 50.7145 11.8831C50.5373 11.7059 50.3896 11.6862 49.1393 11.6862H47.761V7.15758C47.761 2.75697 47.7512 2.61914 47.5641 2.43209C47.4558 2.3238 47.2688 2.2352 47.1507 2.2352C46.9931 2.2352 45.605 3.5544 42.1987 6.96068ZM46.5797 14.295V24.2875H26.5456L36.538 14.295C42.0314 8.80165 46.5403 4.3026 46.5501 4.3026C46.5698 4.3026 46.5797 8.80165 46.5797 14.295ZM7.98822 26.4435V44.7547L5.54672 44.7842C3.15444 44.8138 3.10522 44.8138 2.59329 45.0697L2.08137 45.3257V27.4673C2.08137 11.6271 2.10106 9.56954 2.22904 9.25451C2.43578 8.76227 2.64252 8.54569 3.11507 8.3291C3.45963 8.17159 3.78451 8.14205 5.75346 8.14205H7.98822V26.4435ZM30.4047 18.7547C26.1518 23.0175 24.5274 24.7009 24.5274 24.8584C24.5274 24.9766 24.616 25.1636 24.7243 25.2719C24.9212 25.4688 25.0492 25.4688 36.1442 25.4688C47.2393 25.4688 47.3672 25.4688 47.5641 25.2719C47.761 25.075 47.761 24.9471 47.761 18.9713V12.8675H49.73V49.49H3.49901L3.06584 49.2636C1.76633 48.6138 1.76633 46.8221 3.06584 46.1625C3.48917 45.9558 3.59746 45.9459 6.13741 45.9459C8.67735 45.9459 8.78565 45.9361 8.9727 45.749C9.16959 45.5521 9.16959 45.4241 9.16959 29.2098V12.8675H36.2919L30.4047 18.7547Z" fill="#478CCB"/>
<path fill-rule="evenodd" clip-rule="evenodd" d="M38.5266 16.2443C33.8405 20.9402 33.811 20.9698 34.254 21.3636C34.4214 21.5112 34.8841 21.5309 38.9303 21.5309C43.3013 21.5309 43.4392 21.5211 43.6262 21.334C43.8133 21.147 43.8231 21.0091 43.8231 16.6282C43.8231 12.2473 43.8133 12.0996 43.6459 11.952C43.2127 11.5582 43.193 11.5779 38.5266 16.2443ZM42.6417 17.1008V20.3495H36.095L39.3437 17.1008C41.1256 15.309 42.6024 13.852 42.6122 13.852C42.6319 13.852 42.6417 15.309 42.6417 17.1008Z" fill="#478CCB"/>
<path fill-rule="evenodd" clip-rule="evenodd" d="M10.5478 14.2458C10.4396 14.3541 10.351 14.5313 10.351 14.6396C10.351 14.7479 10.4396 14.9251 10.5478 15.0334C10.7152 15.2007 10.8727 15.2303 11.7292 15.2303C12.5857 15.2303 12.7432 15.2007 12.9106 15.0334C13.0189 14.9251 13.1075 14.7479 13.1075 14.6396C13.1075 14.5313 13.0189 14.3541 12.9106 14.2458C12.7432 14.0784 12.5857 14.0489 11.7292 14.0489C10.8727 14.0489 10.7152 14.0784 10.5478 14.2458Z" fill="#478CCB"/>
<path fill-rule="evenodd" clip-rule="evenodd" d="M14.4858 14.2458C14.3775 14.3541 14.2889 14.5313 14.2889 14.6396C14.2889 14.7479 14.3775 14.9251 14.4858 15.0334C14.6728 15.2204 14.8107 15.2303 18.0299 15.2303C21.2491 15.2303 21.3869 15.2204 21.574 15.0334C21.6823 14.9251 21.7709 14.7479 21.7709 14.6396C21.7709 14.5313 21.6823 14.3541 21.574 14.2458C21.3869 14.0587 21.2491 14.0489 18.0299 14.0489C14.8107 14.0489 14.6728 14.0587 14.4858 14.2458Z" fill="#478CCB"/>
<path fill-rule="evenodd" clip-rule="evenodd" d="M10.5478 16.6085C10.4396 16.7168 10.351 16.894 10.351 17.0023C10.351 17.1106 10.4396 17.2878 10.5478 17.3961C10.7152 17.5635 10.8727 17.593 11.7292 17.593C12.5857 17.593 12.7432 17.5635 12.9106 17.3961C13.0189 17.2878 13.1075 17.1106 13.1075 17.0023C13.1075 16.894 13.0189 16.7168 12.9106 16.6085C12.7432 16.4412 12.5857 16.4117 11.7292 16.4117C10.8727 16.4117 10.7152 16.4412 10.5478 16.6085Z" fill="#478CCB"/>
<path fill-rule="evenodd" clip-rule="evenodd" d="M14.4858 16.6085C14.3775 16.7168 14.2889 16.894 14.2889 17.0023C14.2889 17.1106 14.3775 17.2878 14.4858 17.3961C14.6728 17.5832 14.8107 17.593 18.0299 17.593C21.2491 17.593 21.3869 17.5832 21.574 17.3961C21.6823 17.2878 21.7709 17.1106 21.7709 17.0023C21.7709 16.894 21.6823 16.7168 21.574 16.6085C21.3869 16.4215 21.2491 16.4117 18.0299 16.4117C14.8107 16.4117 14.6728 16.4215 14.4858 16.6085Z" fill="#478CCB"/>
<path fill-rule="evenodd" clip-rule="evenodd" d="M10.5478 18.9713C10.4396 19.0796 10.351 19.2568 10.351 19.3651C10.351 19.4734 10.4396 19.6506 10.5478 19.7589C10.7152 19.9262 10.8727 19.9558 11.7292 19.9558C12.5857 19.9558 12.7432 19.9262 12.9106 19.7589C13.0189 19.6506 13.1075 19.4734 13.1075 19.3651C13.1075 19.2568 13.0189 19.0796 12.9106 18.9713C12.7432 18.8039 12.5857 18.7744 11.7292 18.7744C10.8727 18.7744 10.7152 18.8039 10.5478 18.9713Z" fill="#478CCB"/>
<path fill-rule="evenodd" clip-rule="evenodd" d="M14.4858 18.9713C14.3775 19.0796 14.2889 19.2568 14.2889 19.3651C14.2889 19.4734 14.3775 19.6506 14.4858 19.7589C14.6728 19.9459 14.8107 19.9558 18.0299 19.9558C21.2491 19.9558 21.3869 19.9459 21.574 19.7589C21.6823 19.6506 21.7709 19.4734 21.7709 19.3651C21.7709 19.2568 21.6823 19.0796 21.574 18.9713C21.3869 18.7842 21.2491 18.7744 18.0299 18.7744C14.8107 18.7744 14.6728 18.7842 14.4858 18.9713Z" fill="#478CCB"/>
<path fill-rule="evenodd" clip-rule="evenodd" d="M22.0564 27.8119C20.1268 29.1705 13.8163 33.7975 13.6785 33.955C13.5111 34.1421 13.5013 34.6048 13.5013 40.6396C13.5013 46.9993 13.5013 47.1273 13.6982 47.3242C13.8951 47.5211 14.0231 47.5211 22.7554 47.5211C31.4877 47.5211 31.6156 47.5211 31.8125 47.3242C32.0094 47.1273 32.0094 46.9993 32.0094 40.6396C32.0094 34.2799 31.9996 34.1421 31.8421 33.955C31.7436 33.8467 29.942 32.5078 27.8254 30.972C22.9818 27.4575 22.9522 27.4378 22.7554 27.4378C22.6668 27.4378 22.3517 27.6051 22.0564 27.8119ZM26.2502 31.2969L29.5285 33.6892L26.1419 33.7187C24.2813 33.7286 21.2294 33.7286 19.3688 33.7187L15.9822 33.6892L19.3392 31.2477C21.259 29.8497 22.7554 28.8357 22.8243 28.8653C22.903 28.885 24.4388 29.9876 26.2502 31.2969ZM30.8281 40.6297V46.3397H21.7709V42.2049C21.7709 38.1981 21.761 38.0603 21.574 37.8732C21.3869 37.6862 21.2491 37.6763 18.8175 37.6763C16.3858 37.6763 16.248 37.6862 16.0609 37.8732C15.8739 38.0603 15.864 38.1981 15.864 42.2049V46.3397H14.6827V34.9198H30.8281V40.6297ZM20.5895 42.5987V46.3397H17.0454V38.8577H20.5895V42.5987Z" fill="#478CCB"/>
<path fill-rule="evenodd" clip-rule="evenodd" d="M23.9367 37.8732C23.7497 38.0603 23.7398 38.1981 23.7398 40.6297C23.7398 43.0614 23.7497 43.1992 23.9367 43.3863C24.1238 43.5733 24.2616 43.5832 26.6932 43.5832C29.1249 43.5832 29.2627 43.5733 29.4498 43.3863C29.6368 43.1992 29.6467 43.0614 29.6467 40.6297C29.6467 38.1981 29.6368 38.0603 29.4498 37.8732C29.2627 37.6862 29.1249 37.6763 26.6932 37.6763C24.2616 37.6763 24.1238 37.6862 23.9367 37.8732ZM28.4653 40.6297V42.4018H24.9212V38.8577H28.4653V40.6297Z" fill="#478CCB"/>
<path fill-rule="evenodd" clip-rule="evenodd" d="M39.6686 35.4908L38.7038 36.4556V37.5188C38.7038 38.5427 38.694 38.5919 38.4577 38.7789C37.9261 39.1924 37.9163 39.2515 37.9163 43.022C37.9163 47.8952 37.5323 47.5211 42.4448 47.5211C46.1859 47.5211 46.2745 47.5112 46.7175 46.9009C46.9144 46.6351 46.9242 46.4874 46.9537 43.1106C46.9833 39.3302 46.9734 39.2416 46.4714 38.8085L46.1859 38.5722V36.7509C46.1859 35.0478 46.176 34.9099 45.989 34.7229C45.8019 34.5358 45.6641 34.526 43.2127 34.526H40.6334L39.6686 35.4908ZM45.0045 37.0856V38.4639H39.8852V36.9478L40.4956 36.3276L41.106 35.7074H45.0045V37.0856ZM45.7428 42.9925V46.2905H39.1469L39.1173 43.0909C39.1075 41.3287 39.1173 39.8323 39.1469 39.7634C39.1764 39.665 39.8852 39.6453 42.4645 39.665L45.7428 39.6945V42.9925Z" fill="#478CCB"/>
</svg>
