<svg width="372" height="124" viewBox="0 0 372 124" fill="none" xmlns="http://www.w3.org/2000/svg">
<path fill-rule="evenodd" clip-rule="evenodd" d="M62.3344 0C81.0886 0 98.089 8.36522 109.422 21.5877C111.446 24.0163 111.851 25.6354 107.668 28.064L95.9302 34.8101C91.6127 37.2388 89.4538 36.5641 88.1046 35.3498C81.3584 29.0084 72.3186 24.9607 62.3344 24.9607C41.6911 24.9607 24.9607 41.6912 24.9607 62.3344C24.9607 63.9535 25.0956 65.5726 25.2306 67.1916L0.269817 67.7313C0.134894 65.9773 -4.57764e-05 64.2233 -4.57764e-05 62.3344C0.134877 27.9291 27.929 0 62.3344 0Z" fill="url(#paint0_linear_21_17)"/>
<path fill-rule="evenodd" clip-rule="evenodd" d="M89.1839 36.2944C82.4378 29.2784 72.8582 24.9609 62.3342 24.9609C41.691 24.9609 24.9606 41.6913 24.9606 62.3345C24.9606 65.4377 25.3653 68.406 26.0399 71.2394C26.1749 72.3188 26.7146 74.7474 23.7463 76.5014L8.23018 85.4063C6.47618 86.2159 4.45227 85.6762 3.77766 83.7872C1.34904 77.0411 -0.000167847 69.8902 -0.000167847 62.3345C-0.000167847 51.8105 2.56335 41.9612 7.15073 33.3261C17.2699 23.2069 31.302 16.8655 46.6832 16.8655C63.8184 16.8655 78.9298 24.4212 89.1839 36.2944Z" fill="url(#paint1_linear_21_17)"/>
<path fill-rule="evenodd" clip-rule="evenodd" d="M60.8492 123.724C42.095 123.724 25.0946 115.359 13.7611 102.136C11.7373 99.7078 11.3326 98.0887 15.5152 95.6601L27.2534 88.914C31.5709 86.4854 33.7298 87.16 35.079 88.3743C41.8251 94.7157 50.8649 98.7634 60.8492 98.7634C81.4924 98.7634 98.2229 82.0329 98.2229 61.3897C98.2229 59.7706 98.088 58.1516 97.953 56.5325L122.914 55.9928C123.049 57.7468 123.184 59.5008 123.184 61.3897C123.049 95.7951 95.2546 123.724 60.8492 123.724Z" fill="url(#paint2_linear_21_17)"/>
<path fill-rule="evenodd" clip-rule="evenodd" d="M33.9995 87.4297C40.7457 94.4457 50.3253 98.7633 60.8492 98.7633C81.4924 98.7633 98.2229 82.0328 98.2229 61.3896C98.2229 58.2864 97.8181 55.3181 97.1435 52.4847C97.0086 51.4053 96.4688 48.9767 99.4372 47.2227L114.953 38.3178C116.707 37.5083 118.731 38.048 119.406 39.9369C121.834 46.683 123.184 53.8339 123.184 61.3896C123.184 71.9136 120.62 81.763 116.033 90.398C105.914 100.517 91.8815 106.859 76.5003 106.859C59.3651 106.859 44.2537 99.3029 33.9995 87.4297Z" fill="url(#paint3_linear_21_17)"/>
<path fill-rule="evenodd" clip-rule="evenodd" d="M208.019 21.5696C207.207 20.7577 205.837 20.7577 205.025 21.5696L157.121 69.4739C156.309 70.2858 156.309 71.6559 157.121 72.4679C157.933 73.2798 159.303 73.2798 160.115 72.4679L208.019 24.5637C208.831 23.7517 208.831 22.3816 208.019 21.5696Z" fill="white"/>
<path fill-rule="evenodd" clip-rule="evenodd" d="M168.489 90.0763L167.22 91.4464C166.205 90.5837 164.988 90.0763 163.567 89.9748C162.602 89.9748 161.689 90.2285 160.826 90.736C160.014 91.2434 159.355 91.9031 158.898 92.7658C158.391 93.6285 158.188 94.5927 158.188 95.5568C158.188 97.0792 158.695 98.4494 159.761 99.515C160.826 100.631 162.146 101.139 163.668 101.139C164.582 101.139 165.495 100.987 166.307 100.53C166.916 100.225 167.474 99.7688 167.931 99.2613L169.301 100.479C168.641 101.19 167.88 101.748 167.017 102.154C165.952 102.661 164.785 102.864 163.567 102.864C162.501 102.864 161.486 102.712 160.522 102.306C159.608 101.951 158.796 101.443 158.137 100.784C157.477 100.073 156.97 99.312 156.614 98.4494C156.208 97.5359 156.056 96.5718 156.056 95.6076C156.056 94.6434 156.259 93.6792 156.614 92.7658C156.97 91.8524 157.477 91.0912 158.137 90.4315C158.847 89.7718 159.659 89.2643 160.522 88.9091C161.486 88.5031 162.501 88.3509 163.567 88.3509C164.582 88.3509 165.546 88.5031 166.459 88.8584C167.22 89.1628 167.88 89.5688 168.489 90.0763ZM175.137 102.712L173.107 102.712L173.107 88.6046L175.137 88.6046L175.137 102.712ZM178.79 90.2793L178.79 88.6046L188.787 88.6046L188.787 90.33L184.829 90.33L184.829 102.661L182.749 102.661L182.749 90.2793L178.79 90.2793ZM201.22 88.5539L203.554 88.5539L198.734 96.2165L198.734 102.712L196.704 102.712L196.704 96.2165L191.883 88.5539L194.217 88.5539L197.719 94.1867L201.22 88.5539ZM215.48 102.661L215.48 88.5539L219.742 88.5539C221.468 88.5539 223.244 88.8584 224.665 89.8733C225.578 90.533 226.238 91.3957 226.745 92.3598C227.253 93.3748 227.507 94.4912 227.507 95.6076C227.507 96.724 227.253 97.8404 226.745 98.8553C226.238 99.8702 225.527 100.682 224.665 101.342C223.244 102.357 221.468 102.661 219.742 102.661L215.48 102.661ZM220.047 100.987C221.671 100.987 223.142 100.479 224.208 99.1598C225.02 98.1449 225.426 96.927 225.375 95.6583C225.375 94.3389 225.02 93.1718 224.208 92.1569C223.142 90.8375 221.671 90.33 220.047 90.33L217.51 90.33L217.51 100.987L220.047 100.987ZM239.381 88.6046L239.381 90.33L233.292 90.33L233.292 94.2882L237.909 94.2882L237.909 96.0136L233.292 96.0136L233.292 100.987L239.584 100.987L239.584 102.712L231.211 102.712L231.211 88.6046L239.381 88.6046ZM249.784 102.712L248.312 102.712L242.578 88.6046L244.659 88.6046L249.023 99.515L253.438 88.6046L255.518 88.6046L249.784 102.712ZM267.19 88.6046L267.19 90.33L261.1 90.33L261.1 94.2882L265.718 94.2882L265.718 96.0136L261.1 96.0136L261.1 100.987L267.393 100.987L267.393 102.712L259.02 102.712L259.02 88.6046L267.19 88.6046ZM279.724 102.712L271.402 102.712L271.402 88.6046L273.432 88.6046L273.432 100.987L279.724 100.987L279.724 102.712ZM284.038 100.784C283.378 100.073 282.87 99.312 282.515 98.4494C282.16 97.5867 281.957 96.6225 281.957 95.6076C281.957 94.6434 282.16 93.6792 282.515 92.7658C282.87 91.9031 283.378 91.0912 284.038 90.4315C284.697 89.7211 285.509 89.2136 286.372 88.8584C287.336 88.5031 288.351 88.3002 289.366 88.3002C290.381 88.3002 291.396 88.4524 292.36 88.8584C293.223 89.2643 294.035 89.7718 294.694 90.4315C295.354 91.1419 295.861 91.9031 296.217 92.7658C296.623 93.6792 296.775 94.6434 296.775 95.6076C296.775 96.5718 296.572 97.5359 296.217 98.4494C295.861 99.312 295.354 100.124 294.694 100.784C294.035 101.494 293.223 102.002 292.36 102.357C291.396 102.712 290.381 102.915 289.366 102.915C288.351 102.915 287.336 102.763 286.372 102.357C285.509 101.951 284.697 101.443 284.038 100.784ZM286.676 90.8375C285.864 91.3449 285.205 92.0046 284.748 92.8673C284.241 93.73 284.038 94.6434 284.038 95.6583C284.038 96.6733 284.291 97.5867 284.748 98.4494C285.205 99.312 285.864 99.9717 286.676 100.479C287.539 100.987 288.453 101.24 289.417 101.24C290.381 101.24 291.345 100.987 292.157 100.479C292.969 99.9717 293.629 99.312 294.085 98.4494C294.593 97.5867 294.796 96.6225 294.796 95.6583C294.796 94.6434 294.542 93.73 294.085 92.8673C293.629 92.0046 292.969 91.3449 292.157 90.8375C291.294 90.33 290.381 90.0763 289.417 90.0763C288.453 90.0763 287.488 90.33 286.676 90.8375ZM300.53 102.661L300.53 88.5539L300.53 88.4524L305.706 88.4524C306.417 88.4524 307.229 88.5031 307.888 88.7569C308.446 88.9599 308.903 89.2643 309.309 89.6703C309.664 90.0255 309.918 90.4822 310.07 90.939C310.273 91.4464 310.375 91.9539 310.375 92.5121C310.375 93.0703 310.273 93.5777 310.07 94.0852C309.918 94.5927 309.664 94.9986 309.309 95.3538C308.396 96.318 306.975 96.5718 305.706 96.5718L302.56 96.5718L302.56 102.661L300.53 102.661ZM302.56 90.33L302.56 94.8464L305.605 94.8464C306.366 94.8464 307.178 94.6942 307.736 94.136C308.142 93.73 308.345 93.2225 308.345 92.6136C308.345 92.0046 308.142 91.4972 307.736 91.0404C307.178 90.4822 306.366 90.33 305.605 90.33L302.56 90.33ZM313.927 88.5539L315.297 88.5539L320.981 97.8911L326.664 88.5539L328.034 88.5539L328.034 102.661L326.005 102.661L326.005 93.2733L321.742 100.225L320.22 100.225L315.957 93.2733L315.957 102.661L313.927 102.661L313.927 88.5539ZM341.025 88.6046L341.025 90.33L334.936 90.33L334.936 94.2882L339.554 94.2882L339.554 96.0136L334.936 96.0136L334.936 100.987L341.228 100.987L341.228 102.712L332.855 102.712L332.855 88.6046L341.025 88.6046ZM347.267 102.712L345.237 102.712L345.187 102.712L345.187 88.6046L346.607 88.6046L355.539 99.0583L355.539 88.6046L357.619 88.6046L357.619 102.712L356.198 102.712L347.267 92.2584L347.267 102.712ZM361.324 90.2793L361.324 88.6046L371.321 88.6046L371.321 90.33L367.363 90.33L367.363 102.661L365.282 102.661L365.282 90.2793L361.324 90.2793ZM228.319 72.3664L222.027 72.3664L222.027 21.7219L226.34 21.7219L260.086 61.1515L266.43 68.4082L266.43 72.3664L262.066 72.3664L228.319 32.9367L228.319 72.3664ZM260.036 54.5038L266.379 61.8112L266.379 21.7219L260.036 21.7219L260.036 54.5038ZM312.507 21.7219L319.561 21.7219L305.352 44.4561L301.85 38.874L312.507 21.7219ZM302.459 49.0232L299.364 42.883L286.068 21.6711L279.015 21.6711L296.167 49.0232L296.167 72.3664L302.459 72.3664L302.459 49.0232ZM361.883 21.7219L368.937 21.7219L355.895 41.7158L352.393 36.692L361.883 21.7219ZM357.059 51.1545C350.463 41.4369 343.882 31.742 337.576 21.7219L337.576 21.6711L330.471 21.6711L345.695 45.2173L328.137 72.3664L335.191 72.3664L349.704 49.6322L364.217 72.3664L371.271 72.3664C366.59 65.1967 361.821 58.1697 357.059 51.1545Z" fill="white"/>
<path fill-rule="evenodd" clip-rule="evenodd" d="M192.847 28.8767C195.942 30.8051 198.378 33.3424 200.103 36.5394C201.879 39.7871 202.742 43.2886 202.691 46.993C202.691 50.6975 201.879 54.199 200.103 57.4467C198.378 60.6437 195.942 63.2318 192.847 65.1094C189.7 67.0377 186.25 67.9512 182.545 67.9512C178.841 67.9512 175.339 67.0377 172.193 65.1094C169.979 63.7302 168.103 62.0395 166.582 60.0187L162.332 64.2758C162.694 64.7003 163.071 65.1136 163.465 65.5153C165.85 68.0019 168.692 69.778 171.838 71.0974C175.238 72.5183 178.891 73.178 182.596 73.178C186.3 73.178 189.903 72.5183 193.354 71.0974C196.5 69.778 199.342 67.9511 201.727 65.5153C204.061 63.0795 205.838 60.2885 207.106 57.193C208.426 53.9452 209.085 50.4945 209.085 46.9423C209.085 43.4408 208.426 40.0408 207.106 36.7931C205.838 33.6976 204.061 30.8558 201.727 28.4708C199.342 25.9842 196.5 24.2081 193.354 22.8887C189.954 21.4678 186.3 20.8081 182.596 20.8081C178.891 20.8081 175.289 21.4678 171.838 22.8887C168.692 24.2081 165.85 26.0349 163.465 28.4708C161.13 30.9066 159.354 33.6976 158.086 36.7931C156.766 40.0408 156.107 43.4916 156.107 46.993C156.107 50.4945 156.766 53.9452 158.086 57.193C158.577 58.4118 159.145 59.5774 159.791 60.6866L164.328 56.2437C162.974 53.3394 162.348 50.2444 162.348 46.993C162.348 43.2886 163.16 39.7871 164.936 36.5394C166.662 33.3424 169.097 30.7543 172.193 28.8767C175.39 26.9484 178.841 26.035 182.545 26.035C186.199 26.035 189.7 26.9484 192.847 28.8767Z" fill="white"/>
<defs>
<linearGradient id="paint0_linear_21_17" x1="17.0446" y1="14.8692" x2="110.901" y2="15.9312" gradientUnits="userSpaceOnUse">
<stop stop-color="#202D39"/>
<stop offset="0.489583" stop-color="#30577B"/>
<stop offset="1" stop-color="#4F81AE"/>
</linearGradient>
<linearGradient id="paint1_linear_21_17" x1="49.7006" y1="13.5418" x2="13.0621" y2="76.9955" gradientUnits="userSpaceOnUse">
<stop stop-color="#203951"/>
<stop offset="0.22802" stop-color="#202D39"/>
<stop offset="1" stop-color="#0D1112"/>
</linearGradient>
<linearGradient id="paint2_linear_21_17" x1="106.139" y1="108.855" x2="12.2829" y2="107.793" gradientUnits="userSpaceOnUse">
<stop stop-color="#202D39"/>
<stop offset="0.489583" stop-color="#30577B"/>
<stop offset="1" stop-color="#4F81AE"/>
</linearGradient>
<linearGradient id="paint3_linear_21_17" x1="73.4829" y1="110.182" x2="110.121" y2="46.7286" gradientUnits="userSpaceOnUse">
<stop stop-color="#203951"/>
<stop offset="0.22802" stop-color="#202D39"/>
<stop offset="1" stop-color="#0D1112"/>
</linearGradient>
</defs>
</svg>
