<svg width="663" height="123" viewBox="0 0 663 123" fill="none" xmlns="http://www.w3.org/2000/svg">
<path d="M129.441 0.799999H133.553V12H131.969V2.192H129.441V0.799999ZM140.578 12.128C137.954 12.128 136.002 10.048 136.002 6.4C136.002 2.752 137.954 0.672 140.578 0.672C143.186 0.672 145.138 2.752 145.138 6.4C145.138 10.048 143.186 12.128 140.578 12.128ZM140.578 10.704C142.322 10.704 143.538 9.264 143.538 6.4C143.538 3.536 142.322 2.096 140.578 2.096C138.818 2.096 137.602 3.536 137.602 6.4C137.602 9.264 138.818 10.704 140.578 10.704ZM151.25 12.128C148.626 12.128 146.674 10.048 146.674 6.4C146.674 2.752 148.626 0.672 151.25 0.672C153.858 0.672 155.81 2.752 155.81 6.4C155.81 10.048 153.858 12.128 151.25 12.128ZM151.25 10.704C152.994 10.704 154.21 9.264 154.21 6.4C154.21 3.536 152.994 2.096 151.25 2.096C149.49 2.096 148.274 3.536 148.274 6.4C148.274 9.264 149.49 10.704 151.25 10.704ZM172.939 3.44C175.003 3.44 176.411 4.624 176.411 7.12V12H174.875V7.296C174.875 5.632 174.075 4.816 172.683 4.816C171.147 4.816 170.139 5.792 170.139 7.632V12H168.603V7.296C168.603 5.632 167.803 4.816 166.411 4.816C164.875 4.816 163.867 5.792 163.867 7.632V12H162.331V3.52H163.803V4.784C164.411 3.92 165.451 3.44 166.731 3.44C168.027 3.44 169.115 3.952 169.675 5.008C170.315 4.048 171.499 3.44 172.939 3.44ZM189.845 3.44C191.909 3.44 193.317 4.624 193.317 7.12V12H191.781V7.296C191.781 5.632 190.981 4.816 189.589 4.816C188.053 4.816 187.045 5.792 187.045 7.632V12H185.509V7.296C185.509 5.632 184.709 4.816 183.317 4.816C181.781 4.816 180.773 5.792 180.773 7.632V12H179.237V3.52H180.709V4.784C181.317 3.92 182.357 3.44 183.637 3.44C184.933 3.44 186.021 3.952 186.581 5.008C187.221 4.048 188.405 3.44 189.845 3.44Z" fill="#478CCB"/>
<path d="M3.15381 55.608H8.89781V57H0.849813V55.912L5.40981 51.512C6.59381 50.36 6.81781 49.656 6.81781 48.952C6.81781 47.8 6.00181 47.096 4.43381 47.096C3.23381 47.096 2.25781 47.48 1.56981 48.312L0.481813 47.368C1.34581 46.296 2.83381 45.672 4.57781 45.672C6.91381 45.672 8.41781 46.872 8.41781 48.792C8.41781 49.88 8.09781 50.856 6.57781 52.312L3.15381 55.608ZM13.4133 50.264C16.7573 50.264 18.0693 51.656 18.0693 53.64C18.0693 55.576 16.6933 57.128 13.8293 57.128C12.2453 57.128 10.6773 56.616 9.71731 55.768L10.4533 54.504C11.2053 55.208 12.4533 55.704 13.8133 55.704C15.5093 55.704 16.4693 54.92 16.4693 53.704C16.4693 52.44 15.6693 51.656 13.0773 51.656H10.5333L11.1253 45.8H17.4453V47.192H12.4693L12.1653 50.264H13.4133ZM34.9937 48.44C37.0577 48.44 38.4657 49.624 38.4657 52.12V57H36.9297V52.296C36.9297 50.632 36.1297 49.816 34.7377 49.816C33.2017 49.816 32.1937 50.792 32.1937 52.632V57H30.6577V52.296C30.6577 50.632 29.8577 49.816 28.4657 49.816C26.9297 49.816 25.9217 50.792 25.9217 52.632V57H24.3857V48.52H25.8577V49.784C26.4657 48.92 27.5057 48.44 28.7857 48.44C30.0817 48.44 31.1697 48.952 31.7297 50.008C32.3697 49.048 33.5537 48.44 34.9937 48.44ZM51.8999 48.44C53.9639 48.44 55.3719 49.624 55.3719 52.12V57H53.8359V52.296C53.8359 50.632 53.0359 49.816 51.6439 49.816C50.1079 49.816 49.0999 50.792 49.0999 52.632V57H47.5639V52.296C47.5639 50.632 46.7639 49.816 45.3719 49.816C43.8359 49.816 42.8279 50.792 42.8279 52.632V57H41.2919V48.52H42.7639V49.784C43.3719 48.92 44.4119 48.44 45.6919 48.44C46.9879 48.44 48.0759 48.952 48.6359 50.008C49.2759 49.048 50.4599 48.44 51.8999 48.44Z" fill="#478CCB"/>
<path d="M435.072 5.504C437.312 5.712 438.448 6.976 438.448 8.704C438.448 10.592 437.056 12.128 434.208 12.128C432.608 12.128 431.04 11.616 430.096 10.768L430.832 9.504C431.584 10.208 432.832 10.704 434.208 10.704C435.888 10.704 436.848 9.936 436.848 8.72C436.848 7.536 436 6.768 434.08 6.768H433.184V5.648L436 2.192H430.608V0.799999H438V1.888L435.072 5.504ZM442.984 5.264C446.328 5.264 447.64 6.656 447.64 8.64C447.64 10.576 446.264 12.128 443.4 12.128C441.816 12.128 440.248 11.616 439.288 10.768L440.024 9.504C440.776 10.208 442.024 10.704 443.384 10.704C445.08 10.704 446.04 9.92 446.04 8.704C446.04 7.44 445.24 6.656 442.648 6.656H440.104L440.696 0.799999H447.016V2.192H442.04L441.736 5.264H442.984ZM453.547 12.128C450.923 12.128 448.971 10.048 448.971 6.4C448.971 2.752 450.923 0.672 453.547 0.672C456.155 0.672 458.107 2.752 458.107 6.4C458.107 10.048 456.155 12.128 453.547 12.128ZM453.547 10.704C455.291 10.704 456.507 9.264 456.507 6.4C456.507 3.536 455.291 2.096 453.547 2.096C451.787 2.096 450.571 3.536 450.571 6.4C450.571 9.264 451.787 10.704 453.547 10.704ZM475.236 3.44C477.3 3.44 478.708 4.624 478.708 7.12V12H477.172V7.296C477.172 5.632 476.372 4.816 474.98 4.816C473.444 4.816 472.436 5.792 472.436 7.632V12H470.9V7.296C470.9 5.632 470.1 4.816 468.708 4.816C467.172 4.816 466.164 5.792 466.164 7.632V12H464.628V3.52H466.1V4.784C466.708 3.92 467.748 3.44 469.028 3.44C470.324 3.44 471.412 3.952 471.972 5.008C472.612 4.048 473.796 3.44 475.236 3.44ZM492.142 3.44C494.206 3.44 495.614 4.624 495.614 7.12V12H494.078V7.296C494.078 5.632 493.278 4.816 491.886 4.816C490.35 4.816 489.342 5.792 489.342 7.632V12H487.806V7.296C487.806 5.632 487.006 4.816 485.614 4.816C484.078 4.816 483.07 5.792 483.07 7.632V12H481.534V3.52H483.006V4.784C483.614 3.92 484.654 3.44 485.934 3.44C487.23 3.44 488.318 3.952 488.878 5.008C489.518 4.048 490.702 3.44 492.142 3.44Z" fill="#478CCB"/>
<path d="M348.7 117.872V119.248H346.572V122H345.02V119.248H338.796V118.128L344.524 110.8H346.252L340.764 117.872H345.068V115.44H346.572V117.872H348.7ZM352.812 115.264C356.156 115.264 357.468 116.656 357.468 118.64C357.468 120.576 356.092 122.128 353.228 122.128C351.644 122.128 350.076 121.616 349.116 120.768L349.852 119.504C350.604 120.208 351.852 120.704 353.212 120.704C354.908 120.704 355.868 119.92 355.868 118.704C355.868 117.44 355.068 116.656 352.476 116.656H349.932L350.524 110.8H356.844V112.192H351.868L351.564 115.264H352.812ZM363.375 122.128C360.751 122.128 358.799 120.048 358.799 116.4C358.799 112.752 360.751 110.672 363.375 110.672C365.983 110.672 367.935 112.752 367.935 116.4C367.935 120.048 365.983 122.128 363.375 122.128ZM363.375 120.704C365.119 120.704 366.335 119.264 366.335 116.4C366.335 113.536 365.119 112.096 363.375 112.096C361.615 112.096 360.399 113.536 360.399 116.4C360.399 119.264 361.615 120.704 363.375 120.704ZM385.064 113.44C387.128 113.44 388.536 114.624 388.536 117.12V122H387V117.296C387 115.632 386.2 114.816 384.808 114.816C383.272 114.816 382.264 115.792 382.264 117.632V122H380.728V117.296C380.728 115.632 379.928 114.816 378.536 114.816C377 114.816 375.992 115.792 375.992 117.632V122H374.456V113.52H375.928V114.784C376.536 113.92 377.576 113.44 378.856 113.44C380.152 113.44 381.24 113.952 381.8 115.008C382.44 114.048 383.624 113.44 385.064 113.44ZM401.97 113.44C404.034 113.44 405.442 114.624 405.442 117.12V122H403.906V117.296C403.906 115.632 403.106 114.816 401.714 114.816C400.178 114.816 399.17 115.792 399.17 117.632V122H397.634V117.296C397.634 115.632 396.834 114.816 395.442 114.816C393.906 114.816 392.898 115.792 392.898 117.632V122H391.362V113.52H392.834V114.784C393.442 113.92 394.482 113.44 395.762 113.44C397.058 113.44 398.146 113.952 398.706 115.008C399.346 114.048 400.53 113.44 401.97 113.44Z" fill="#478CCB"/>
<rect x="73" y="35" width="590" height="1" fill="#478CCB"/>
<rect x="86" y="28" width="73" height="0.999998" transform="rotate(90 86 28)" fill="#478CCB"/>
<rect x="255" y="28" width="48" height="0.999998" transform="rotate(90 255 28)" fill="#478CCB"/>
<rect x="270" y="28" width="48" height="0.999998" transform="rotate(90 270 28)" fill="#478CCB"/>
<rect x="648" y="28" width="73" height="0.999998" transform="rotate(90 648 28)" fill="#478CCB"/>
<rect x="73" y="69" width="590" height="1" fill="#478CCB"/>
<rect x="73" y="92" width="590" height="1" fill="#478CCB"/>
<mask id="path-12-outside-1_21_38" maskUnits="userSpaceOnUse" x="85" y="34" width="563" height="36" fill="black">
<rect fill="white" x="85" y="34" width="563" height="36"/>
<path d="M100.337 68.4547C95.942 68.4547 92.5168 67.2271 90.0616 64.7719C87.6064 62.2864 86.3788 58.74 86.3788 54.1327V36.1733H92.2895V53.9053C92.2895 60.1494 94.9872 63.2715 100.383 63.2715C105.748 63.2715 108.43 60.1494 108.43 53.9053V36.1733H114.25V54.1327C114.25 58.74 113.022 62.2864 110.567 64.7719C108.142 67.2271 104.732 68.4547 100.337 68.4547ZM150.808 36.1733V68H145.943L128.393 46.4488V68H122.528V36.1733H127.393L144.943 57.7245V36.1733H150.808ZM159.336 36.1733H173.249C176.644 36.1733 179.66 36.8402 182.297 38.1739C184.934 39.4772 186.98 41.3414 188.435 43.7663C189.89 46.1608 190.617 48.9343 190.617 52.0867C190.617 55.239 189.89 58.0276 188.435 60.4525C186.98 62.8471 184.934 64.7112 182.297 66.0449C179.66 67.3483 176.644 68 173.249 68H159.336V36.1733ZM172.976 62.9987C175.31 62.9987 177.356 62.5592 179.114 61.6801C180.902 60.7708 182.266 59.4977 183.206 57.8609C184.176 56.1938 184.661 54.2691 184.661 52.0867C184.661 49.9043 184.176 47.9947 183.206 46.3579C182.266 44.6908 180.902 43.4177 179.114 42.5387C177.356 41.6293 175.31 41.1747 172.976 41.1747H165.247V62.9987H172.976ZM220.769 63.0441V68H196.899V36.1733H220.133V41.1292H202.81V49.4041H218.178V54.2691H202.81V63.0441H220.769ZM248.182 68L241.681 58.6793C241.408 58.7096 240.999 58.7248 240.453 58.7248H233.269V68H227.359V36.1733H240.453C243.211 36.1733 245.606 36.628 247.637 37.5373C249.698 38.4467 251.274 39.75 252.365 41.4475C253.456 43.1449 254.002 45.1606 254.002 47.4945C254.002 49.8891 253.411 51.9503 252.229 53.678C251.077 55.4057 249.41 56.694 247.227 57.5427L254.548 68H248.182ZM248.046 47.4945C248.046 45.4637 247.379 43.9027 246.045 42.8115C244.712 41.7203 242.757 41.1747 240.18 41.1747H233.269V53.8599H240.18C242.757 53.8599 244.712 53.3143 246.045 52.2231C247.379 51.1016 248.046 49.5254 248.046 47.4945ZM287.912 68.4547C284.699 68.4547 281.789 67.7575 279.182 66.3632C276.606 64.9386 274.575 62.9835 273.089 60.498C271.635 58.0125 270.907 55.2087 270.907 52.0867C270.907 48.9646 271.65 46.1608 273.135 43.6753C274.62 41.1898 276.651 39.2499 279.227 37.8556C281.834 36.431 284.744 35.7187 287.957 35.7187C290.564 35.7187 292.943 36.1733 295.095 37.0827C297.247 37.992 299.066 39.3105 300.551 41.0383L296.732 44.6301C294.428 42.1446 291.594 40.9019 288.23 40.9019C286.047 40.9019 284.092 41.3868 282.365 42.3568C280.637 43.2964 279.288 44.615 278.318 46.3124C277.348 48.0098 276.863 49.9346 276.863 52.0867C276.863 54.2388 277.348 56.1635 278.318 57.8609C279.288 59.5584 280.637 60.892 282.365 61.862C284.092 62.8016 286.047 63.2715 288.23 63.2715C291.594 63.2715 294.428 62.0136 296.732 59.4977L300.551 63.1351C299.066 64.8628 297.232 66.1813 295.05 67.0907C292.898 68 290.518 68.4547 287.912 68.4547ZM320.416 68.4547C317.173 68.4547 314.248 67.7575 311.641 66.3632C309.035 64.9386 306.989 62.9835 305.503 60.498C304.018 57.9822 303.275 55.1784 303.275 52.0867C303.275 48.9949 304.018 46.2063 305.503 43.7208C306.989 41.205 309.035 39.2499 311.641 37.8556C314.248 36.431 317.173 35.7187 320.416 35.7187C323.66 35.7187 326.585 36.431 329.191 37.8556C331.798 39.2499 333.844 41.1898 335.329 43.6753C336.815 46.1608 337.557 48.9646 337.557 52.0867C337.557 55.2087 336.815 58.0125 335.329 60.498C333.844 62.9835 331.798 64.9386 329.191 66.3632C326.585 67.7575 323.66 68.4547 320.416 68.4547ZM320.416 63.2715C322.538 63.2715 324.448 62.8016 326.145 61.862C327.843 60.892 329.176 59.5584 330.146 57.8609C331.116 56.1332 331.601 54.2084 331.601 52.0867C331.601 49.9649 331.116 48.0553 330.146 46.3579C329.176 44.6301 327.843 43.2964 326.145 42.3568C324.448 41.3868 322.538 40.9019 320.416 40.9019C318.295 40.9019 316.385 41.3868 314.688 42.3568C312.99 43.2964 311.656 44.6301 310.686 46.3579C309.717 48.0553 309.232 49.9649 309.232 52.0867C309.232 54.2084 309.717 56.1332 310.686 57.8609C311.656 59.5584 312.99 60.892 314.688 61.862C316.385 62.8016 318.295 63.2715 320.416 63.2715ZM372.103 36.1733V68H367.238L349.688 46.4488V68H343.822V36.1733H348.687L366.238 57.7245V36.1733H372.103ZM390.497 68.4547C388.042 68.4547 385.663 68.1061 383.359 67.4089C381.086 66.7118 379.282 65.7873 377.948 64.6355L379.994 60.0433C381.298 61.0739 382.889 61.9226 384.768 62.5895C386.678 63.226 388.588 63.5443 390.497 63.5443C392.861 63.5443 394.62 63.1654 395.771 62.4076C396.953 61.6498 397.545 60.6496 397.545 59.4068C397.545 58.4975 397.211 57.7548 396.544 57.1789C395.908 56.5727 395.089 56.1029 394.089 55.7695C393.089 55.436 391.725 55.0572 389.997 54.6328C387.572 54.0569 385.602 53.481 384.086 52.9051C382.601 52.3292 381.313 51.435 380.222 50.2225C379.161 48.9798 378.63 47.3127 378.63 45.2212C378.63 43.4632 379.1 41.8718 380.04 40.4472C381.01 38.9923 382.45 37.8404 384.359 36.9917C386.299 36.143 388.663 35.7187 391.452 35.7187C393.392 35.7187 395.302 35.9612 397.181 36.4461C399.06 36.9311 400.682 37.6283 402.046 38.5376L400.182 43.1297C398.787 42.3113 397.332 41.69 395.817 41.2656C394.301 40.8412 392.831 40.6291 391.407 40.6291C389.073 40.6291 387.33 41.0231 386.178 41.8112C385.056 42.5993 384.496 43.645 384.496 44.9484C384.496 45.8577 384.814 46.6004 385.45 47.1763C386.117 47.7522 386.951 48.2068 387.951 48.5403C388.951 48.8737 390.315 49.2526 392.043 49.6769C394.407 50.2225 396.347 50.7984 397.863 51.4047C399.378 51.9806 400.667 52.8748 401.727 54.0872C402.819 55.2996 403.364 56.9364 403.364 58.9976C403.364 60.7556 402.879 62.347 401.909 63.7716C400.97 65.1962 399.53 66.3329 397.59 67.1816C395.65 68.0303 393.286 68.4547 390.497 68.4547ZM415.237 41.1747H404.689V36.1733H431.696V41.1747H421.148V68H415.237V41.1747ZM456.956 68L450.454 58.6793C450.181 58.7096 449.772 58.7248 449.227 58.7248H442.043V68H436.132V36.1733H449.227C451.985 36.1733 454.379 36.628 456.41 37.5373C458.471 38.4467 460.048 39.75 461.139 41.4475C462.23 43.1449 462.776 45.1606 462.776 47.4945C462.776 49.8891 462.185 51.9503 461.002 53.678C459.851 55.4057 458.184 56.694 456.001 57.5427L463.321 68H456.956ZM456.82 47.4945C456.82 45.4637 456.153 43.9027 454.819 42.8115C453.485 41.7203 451.53 41.1747 448.954 41.1747H442.043V53.8599H448.954C451.53 53.8599 453.485 53.3143 454.819 52.2231C456.153 51.1016 456.82 49.5254 456.82 47.4945ZM483.074 68.4547C478.679 68.4547 475.254 67.2271 472.799 64.7719C470.343 62.2864 469.116 58.74 469.116 54.1327V36.1733H475.026V53.9053C475.026 60.1494 477.724 63.2715 483.12 63.2715C488.485 63.2715 491.167 60.1494 491.167 53.9053V36.1733H496.987V54.1327C496.987 58.74 495.759 62.2864 493.304 64.7719C490.879 67.2271 487.469 68.4547 483.074 68.4547ZM519.996 68.4547C516.783 68.4547 513.873 67.7575 511.266 66.3632C508.69 64.9386 506.659 62.9835 505.174 60.498C503.719 58.0125 502.991 55.2087 502.991 52.0867C502.991 48.9646 503.734 46.1608 505.219 43.6753C506.704 41.1898 508.735 39.2499 511.312 37.8556C513.918 36.431 516.828 35.7187 520.041 35.7187C522.648 35.7187 525.027 36.1733 527.18 37.0827C529.332 37.992 531.15 39.3105 532.636 41.0383L528.816 44.6301C526.513 42.1446 523.679 40.9019 520.314 40.9019C518.132 40.9019 516.177 41.3868 514.449 42.3568C512.721 43.2964 511.372 44.615 510.402 46.3124C509.432 48.0098 508.947 49.9346 508.947 52.0867C508.947 54.2388 509.432 56.1635 510.402 57.8609C511.372 59.5584 512.721 60.892 514.449 61.862C516.177 62.8016 518.132 63.2715 520.314 63.2715C523.679 63.2715 526.513 62.0136 528.816 59.4977L532.636 63.1351C531.15 64.8628 529.317 66.1813 527.134 67.0907C524.982 68 522.603 68.4547 519.996 68.4547ZM544.4 41.1747H533.852V36.1733H560.859V41.1747H550.311V68H544.4V41.1747ZM565.295 36.1733H571.206V68H565.295V36.1733ZM594.682 68.4547C591.438 68.4547 588.513 67.7575 585.907 66.3632C583.3 64.9386 581.254 62.9835 579.769 60.498C578.283 57.9822 577.541 55.1784 577.541 52.0867C577.541 48.9949 578.283 46.2063 579.769 43.7208C581.254 41.205 583.3 39.2499 585.907 37.8556C588.513 36.431 591.438 35.7187 594.682 35.7187C597.925 35.7187 600.85 36.431 603.457 37.8556C606.063 39.2499 608.109 41.1898 609.595 43.6753C611.08 46.1608 611.823 48.9646 611.823 52.0867C611.823 55.2087 611.08 58.0125 609.595 60.498C608.109 62.9835 606.063 64.9386 603.457 66.3632C600.85 67.7575 597.925 68.4547 594.682 68.4547ZM594.682 63.2715C596.803 63.2715 598.713 62.8016 600.41 61.862C602.108 60.892 603.442 59.5584 604.411 57.8609C605.381 56.1332 605.866 54.2084 605.866 52.0867C605.866 49.9649 605.381 48.0553 604.411 46.3579C603.442 44.6301 602.108 43.2964 600.41 42.3568C598.713 41.3868 596.803 40.9019 594.682 40.9019C592.56 40.9019 590.65 41.3868 588.953 42.3568C587.255 43.2964 585.922 44.6301 584.952 46.3579C583.982 48.0553 583.497 49.9649 583.497 52.0867C583.497 54.2084 583.982 56.1332 584.952 57.8609C585.922 59.5584 587.255 60.892 588.953 61.862C590.65 62.8016 592.56 63.2715 594.682 63.2715ZM646.368 36.1733V68H641.503L623.953 46.4488V68H618.088V36.1733H622.953L640.503 57.7245V36.1733H646.368Z"/>
</mask>
<path d="M100.337 68.4547C95.942 68.4547 92.5168 67.2271 90.0616 64.7719C87.6064 62.2864 86.3788 58.74 86.3788 54.1327V36.1733H92.2895V53.9053C92.2895 60.1494 94.9872 63.2715 100.383 63.2715C105.748 63.2715 108.43 60.1494 108.43 53.9053V36.1733H114.25V54.1327C114.25 58.74 113.022 62.2864 110.567 64.7719C108.142 67.2271 104.732 68.4547 100.337 68.4547ZM150.808 36.1733V68H145.943L128.393 46.4488V68H122.528V36.1733H127.393L144.943 57.7245V36.1733H150.808ZM159.336 36.1733H173.249C176.644 36.1733 179.66 36.8402 182.297 38.1739C184.934 39.4772 186.98 41.3414 188.435 43.7663C189.89 46.1608 190.617 48.9343 190.617 52.0867C190.617 55.239 189.89 58.0276 188.435 60.4525C186.98 62.8471 184.934 64.7112 182.297 66.0449C179.66 67.3483 176.644 68 173.249 68H159.336V36.1733ZM172.976 62.9987C175.31 62.9987 177.356 62.5592 179.114 61.6801C180.902 60.7708 182.266 59.4977 183.206 57.8609C184.176 56.1938 184.661 54.2691 184.661 52.0867C184.661 49.9043 184.176 47.9947 183.206 46.3579C182.266 44.6908 180.902 43.4177 179.114 42.5387C177.356 41.6293 175.31 41.1747 172.976 41.1747H165.247V62.9987H172.976ZM220.769 63.0441V68H196.899V36.1733H220.133V41.1292H202.81V49.4041H218.178V54.2691H202.81V63.0441H220.769ZM248.182 68L241.681 58.6793C241.408 58.7096 240.999 58.7248 240.453 58.7248H233.269V68H227.359V36.1733H240.453C243.211 36.1733 245.606 36.628 247.637 37.5373C249.698 38.4467 251.274 39.75 252.365 41.4475C253.456 43.1449 254.002 45.1606 254.002 47.4945C254.002 49.8891 253.411 51.9503 252.229 53.678C251.077 55.4057 249.41 56.694 247.227 57.5427L254.548 68H248.182ZM248.046 47.4945C248.046 45.4637 247.379 43.9027 246.045 42.8115C244.712 41.7203 242.757 41.1747 240.18 41.1747H233.269V53.8599H240.18C242.757 53.8599 244.712 53.3143 246.045 52.2231C247.379 51.1016 248.046 49.5254 248.046 47.4945ZM287.912 68.4547C284.699 68.4547 281.789 67.7575 279.182 66.3632C276.606 64.9386 274.575 62.9835 273.089 60.498C271.635 58.0125 270.907 55.2087 270.907 52.0867C270.907 48.9646 271.65 46.1608 273.135 43.6753C274.62 41.1898 276.651 39.2499 279.227 37.8556C281.834 36.431 284.744 35.7187 287.957 35.7187C290.564 35.7187 292.943 36.1733 295.095 37.0827C297.247 37.992 299.066 39.3105 300.551 41.0383L296.732 44.6301C294.428 42.1446 291.594 40.9019 288.23 40.9019C286.047 40.9019 284.092 41.3868 282.365 42.3568C280.637 43.2964 279.288 44.615 278.318 46.3124C277.348 48.0098 276.863 49.9346 276.863 52.0867C276.863 54.2388 277.348 56.1635 278.318 57.8609C279.288 59.5584 280.637 60.892 282.365 61.862C284.092 62.8016 286.047 63.2715 288.23 63.2715C291.594 63.2715 294.428 62.0136 296.732 59.4977L300.551 63.1351C299.066 64.8628 297.232 66.1813 295.05 67.0907C292.898 68 290.518 68.4547 287.912 68.4547ZM320.416 68.4547C317.173 68.4547 314.248 67.7575 311.641 66.3632C309.035 64.9386 306.989 62.9835 305.503 60.498C304.018 57.9822 303.275 55.1784 303.275 52.0867C303.275 48.9949 304.018 46.2063 305.503 43.7208C306.989 41.205 309.035 39.2499 311.641 37.8556C314.248 36.431 317.173 35.7187 320.416 35.7187C323.66 35.7187 326.585 36.431 329.191 37.8556C331.798 39.2499 333.844 41.1898 335.329 43.6753C336.815 46.1608 337.557 48.9646 337.557 52.0867C337.557 55.2087 336.815 58.0125 335.329 60.498C333.844 62.9835 331.798 64.9386 329.191 66.3632C326.585 67.7575 323.66 68.4547 320.416 68.4547ZM320.416 63.2715C322.538 63.2715 324.448 62.8016 326.145 61.862C327.843 60.892 329.176 59.5584 330.146 57.8609C331.116 56.1332 331.601 54.2084 331.601 52.0867C331.601 49.9649 331.116 48.0553 330.146 46.3579C329.176 44.6301 327.843 43.2964 326.145 42.3568C324.448 41.3868 322.538 40.9019 320.416 40.9019C318.295 40.9019 316.385 41.3868 314.688 42.3568C312.99 43.2964 311.656 44.6301 310.686 46.3579C309.717 48.0553 309.232 49.9649 309.232 52.0867C309.232 54.2084 309.717 56.1332 310.686 57.8609C311.656 59.5584 312.99 60.892 314.688 61.862C316.385 62.8016 318.295 63.2715 320.416 63.2715ZM372.103 36.1733V68H367.238L349.688 46.4488V68H343.822V36.1733H348.687L366.238 57.7245V36.1733H372.103ZM390.497 68.4547C388.042 68.4547 385.663 68.1061 383.359 67.4089C381.086 66.7118 379.282 65.7873 377.948 64.6355L379.994 60.0433C381.298 61.0739 382.889 61.9226 384.768 62.5895C386.678 63.226 388.588 63.5443 390.497 63.5443C392.861 63.5443 394.62 63.1654 395.771 62.4076C396.953 61.6498 397.545 60.6496 397.545 59.4068C397.545 58.4975 397.211 57.7548 396.544 57.1789C395.908 56.5727 395.089 56.1029 394.089 55.7695C393.089 55.436 391.725 55.0572 389.997 54.6328C387.572 54.0569 385.602 53.481 384.086 52.9051C382.601 52.3292 381.313 51.435 380.222 50.2225C379.161 48.9798 378.63 47.3127 378.63 45.2212C378.63 43.4632 379.1 41.8718 380.04 40.4472C381.01 38.9923 382.45 37.8404 384.359 36.9917C386.299 36.143 388.663 35.7187 391.452 35.7187C393.392 35.7187 395.302 35.9612 397.181 36.4461C399.06 36.9311 400.682 37.6283 402.046 38.5376L400.182 43.1297C398.787 42.3113 397.332 41.69 395.817 41.2656C394.301 40.8412 392.831 40.6291 391.407 40.6291C389.073 40.6291 387.33 41.0231 386.178 41.8112C385.056 42.5993 384.496 43.645 384.496 44.9484C384.496 45.8577 384.814 46.6004 385.45 47.1763C386.117 47.7522 386.951 48.2068 387.951 48.5403C388.951 48.8737 390.315 49.2526 392.043 49.6769C394.407 50.2225 396.347 50.7984 397.863 51.4047C399.378 51.9806 400.667 52.8748 401.727 54.0872C402.819 55.2996 403.364 56.9364 403.364 58.9976C403.364 60.7556 402.879 62.347 401.909 63.7716C400.97 65.1962 399.53 66.3329 397.59 67.1816C395.65 68.0303 393.286 68.4547 390.497 68.4547ZM415.237 41.1747H404.689V36.1733H431.696V41.1747H421.148V68H415.237V41.1747ZM456.956 68L450.454 58.6793C450.181 58.7096 449.772 58.7248 449.227 58.7248H442.043V68H436.132V36.1733H449.227C451.985 36.1733 454.379 36.628 456.41 37.5373C458.471 38.4467 460.048 39.75 461.139 41.4475C462.23 43.1449 462.776 45.1606 462.776 47.4945C462.776 49.8891 462.185 51.9503 461.002 53.678C459.851 55.4057 458.184 56.694 456.001 57.5427L463.321 68H456.956ZM456.82 47.4945C456.82 45.4637 456.153 43.9027 454.819 42.8115C453.485 41.7203 451.53 41.1747 448.954 41.1747H442.043V53.8599H448.954C451.53 53.8599 453.485 53.3143 454.819 52.2231C456.153 51.1016 456.82 49.5254 456.82 47.4945ZM483.074 68.4547C478.679 68.4547 475.254 67.2271 472.799 64.7719C470.343 62.2864 469.116 58.74 469.116 54.1327V36.1733H475.026V53.9053C475.026 60.1494 477.724 63.2715 483.12 63.2715C488.485 63.2715 491.167 60.1494 491.167 53.9053V36.1733H496.987V54.1327C496.987 58.74 495.759 62.2864 493.304 64.7719C490.879 67.2271 487.469 68.4547 483.074 68.4547ZM519.996 68.4547C516.783 68.4547 513.873 67.7575 511.266 66.3632C508.69 64.9386 506.659 62.9835 505.174 60.498C503.719 58.0125 502.991 55.2087 502.991 52.0867C502.991 48.9646 503.734 46.1608 505.219 43.6753C506.704 41.1898 508.735 39.2499 511.312 37.8556C513.918 36.431 516.828 35.7187 520.041 35.7187C522.648 35.7187 525.027 36.1733 527.18 37.0827C529.332 37.992 531.15 39.3105 532.636 41.0383L528.816 44.6301C526.513 42.1446 523.679 40.9019 520.314 40.9019C518.132 40.9019 516.177 41.3868 514.449 42.3568C512.721 43.2964 511.372 44.615 510.402 46.3124C509.432 48.0098 508.947 49.9346 508.947 52.0867C508.947 54.2388 509.432 56.1635 510.402 57.8609C511.372 59.5584 512.721 60.892 514.449 61.862C516.177 62.8016 518.132 63.2715 520.314 63.2715C523.679 63.2715 526.513 62.0136 528.816 59.4977L532.636 63.1351C531.15 64.8628 529.317 66.1813 527.134 67.0907C524.982 68 522.603 68.4547 519.996 68.4547ZM544.4 41.1747H533.852V36.1733H560.859V41.1747H550.311V68H544.4V41.1747ZM565.295 36.1733H571.206V68H565.295V36.1733ZM594.682 68.4547C591.438 68.4547 588.513 67.7575 585.907 66.3632C583.3 64.9386 581.254 62.9835 579.769 60.498C578.283 57.9822 577.541 55.1784 577.541 52.0867C577.541 48.9949 578.283 46.2063 579.769 43.7208C581.254 41.205 583.3 39.2499 585.907 37.8556C588.513 36.431 591.438 35.7187 594.682 35.7187C597.925 35.7187 600.85 36.431 603.457 37.8556C606.063 39.2499 608.109 41.1898 609.595 43.6753C611.08 46.1608 611.823 48.9646 611.823 52.0867C611.823 55.2087 611.08 58.0125 609.595 60.498C608.109 62.9835 606.063 64.9386 603.457 66.3632C600.85 67.7575 597.925 68.4547 594.682 68.4547ZM594.682 63.2715C596.803 63.2715 598.713 62.8016 600.41 61.862C602.108 60.892 603.442 59.5584 604.411 57.8609C605.381 56.1332 605.866 54.2084 605.866 52.0867C605.866 49.9649 605.381 48.0553 604.411 46.3579C603.442 44.6301 602.108 43.2964 600.41 42.3568C598.713 41.3868 596.803 40.9019 594.682 40.9019C592.56 40.9019 590.65 41.3868 588.953 42.3568C587.255 43.2964 585.922 44.6301 584.952 46.3579C583.982 48.0553 583.497 49.9649 583.497 52.0867C583.497 54.2084 583.982 56.1332 584.952 57.8609C585.922 59.5584 587.255 60.892 588.953 61.862C590.65 62.8016 592.56 63.2715 594.682 63.2715ZM646.368 36.1733V68H641.503L623.953 46.4488V68H618.088V36.1733H622.953L640.503 57.7245V36.1733H646.368Z" fill="white" fill-opacity="0.15"/>
<path d="M90.0616 64.7719L89.3502 65.4746L89.3545 65.479L90.0616 64.7719ZM86.3788 36.1733V35.1733H85.3788V36.1733H86.3788ZM92.2895 36.1733H93.2895V35.1733H92.2895V36.1733ZM108.43 36.1733V35.1733H107.43V36.1733H108.43ZM114.25 36.1733H115.25V35.1733H114.25V36.1733ZM110.567 64.7719L109.856 64.0691L109.856 64.0692L110.567 64.7719ZM100.337 67.4547C96.133 67.4547 92.9898 66.2858 90.7687 64.0648L89.3545 65.479C92.0439 68.1683 95.7509 69.4547 100.337 69.4547V67.4547ZM90.773 64.0691C88.5559 61.8246 87.3788 58.5637 87.3788 54.1327H85.3788C85.3788 58.9162 86.6569 62.7481 89.3502 65.4746L90.773 64.0691ZM87.3788 54.1327V36.1733H85.3788V54.1327H87.3788ZM86.3788 37.1733H92.2895V35.1733H86.3788V37.1733ZM91.2895 36.1733V53.9053H93.2895V36.1733H91.2895ZM91.2895 53.9053C91.2895 57.1486 91.987 59.7678 93.5561 61.5837C95.1494 63.4276 97.4895 64.2715 100.383 64.2715V62.2715C97.8802 62.2715 96.1738 61.5543 95.0694 60.2761C93.9408 58.97 93.2895 56.9061 93.2895 53.9053H91.2895ZM100.383 64.2715C103.262 64.2715 105.592 63.4265 107.177 61.5816C108.737 59.7658 109.43 57.1475 109.43 53.9053H107.43C107.43 56.9072 106.782 58.972 105.66 60.2782C104.562 61.5554 102.868 62.2715 100.383 62.2715V64.2715ZM109.43 53.9053V36.1733H107.43V53.9053H109.43ZM108.43 37.1733H114.25V35.1733H108.43V37.1733ZM113.25 36.1733V54.1327H115.25V36.1733H113.25ZM113.25 54.1327C113.25 58.5637 112.073 61.8246 109.856 64.0691L111.279 65.4746C113.972 62.7481 115.25 58.9162 115.25 54.1327H113.25ZM109.856 64.0692C107.667 66.2856 104.542 67.4547 100.337 67.4547V69.4547C104.923 69.4547 108.618 68.1685 111.279 65.4746L109.856 64.0692ZM150.808 36.1733H151.808V35.1733H150.808V36.1733ZM150.808 68V69H151.808V68H150.808ZM145.943 68L145.168 68.6315L145.468 69H145.943V68ZM128.393 46.4488L129.168 45.8173L127.393 43.6372V46.4488H128.393ZM128.393 68V69H129.393V68H128.393ZM122.528 68H121.528V69H122.528V68ZM122.528 36.1733V35.1733H121.528V36.1733H122.528ZM127.393 36.1733L128.168 35.5419L127.868 35.1733H127.393V36.1733ZM144.943 57.7245L144.167 58.356L145.943 60.5362V57.7245H144.943ZM144.943 36.1733V35.1733H143.943V36.1733H144.943ZM149.808 36.1733V68H151.808V36.1733H149.808ZM150.808 67H145.943V69H150.808V67ZM146.718 67.3685L129.168 45.8173L127.617 47.0803L145.168 68.6315L146.718 67.3685ZM127.393 46.4488V68H129.393V46.4488H127.393ZM128.393 67H122.528V69H128.393V67ZM123.528 68V36.1733H121.528V68H123.528ZM122.528 37.1733H127.393V35.1733H122.528V37.1733ZM126.617 36.8048L144.167 58.356L145.718 57.0931L128.168 35.5419L126.617 36.8048ZM145.943 57.7245V36.1733H143.943V57.7245H145.943ZM144.943 37.1733H150.808V35.1733H144.943V37.1733ZM159.336 36.1733V35.1733H158.336V36.1733H159.336ZM182.297 38.1739L181.845 39.0663L181.854 39.0703L182.297 38.1739ZM188.435 43.7663L187.577 44.2808L187.58 44.2855L188.435 43.7663ZM188.435 60.4525L189.289 60.9718L189.292 60.967L188.435 60.4525ZM182.297 66.0449L182.74 66.9415L182.748 66.9373L182.297 66.0449ZM159.336 68H158.336V69H159.336V68ZM179.114 61.6801L179.561 62.5746L179.567 62.5715L179.114 61.6801ZM183.206 57.8609L182.342 57.358L182.339 57.3631L183.206 57.8609ZM183.206 46.3579L182.335 46.8489L182.34 46.8583L182.346 46.8677L183.206 46.3579ZM179.114 42.5387L178.655 43.4269L178.664 43.4316L178.673 43.4361L179.114 42.5387ZM165.247 41.1747V40.1747H164.247V41.1747H165.247ZM165.247 62.9987H164.247V63.9987H165.247V62.9987ZM159.336 37.1733H173.249V35.1733H159.336V37.1733ZM173.249 37.1733C176.51 37.1733 179.368 37.8132 181.845 39.0662L182.748 37.2815C179.952 35.8672 176.777 35.1733 173.249 35.1733V37.1733ZM181.854 39.0703C184.326 40.2924 186.225 42.0271 187.577 44.2808L189.292 43.2518C187.735 40.6556 185.542 38.6621 182.74 37.2774L181.854 39.0703ZM187.58 44.2855C188.929 46.5047 189.617 49.094 189.617 52.0867H191.617C191.617 48.7747 190.851 45.817 189.289 43.247L187.58 44.2855ZM189.617 52.0867C189.617 55.0791 188.929 57.6859 187.577 59.938L189.292 60.967C190.851 58.3694 191.617 55.3989 191.617 52.0867H189.617ZM187.58 59.9333C186.228 62.1594 184.325 63.8983 181.845 65.1526L182.748 66.9373C185.542 65.5242 187.732 63.5348 189.289 60.9718L187.58 59.9333ZM181.854 65.1485C179.374 66.374 176.514 67 173.249 67V69C176.774 69 179.945 68.3227 182.74 66.9414L181.854 65.1485ZM173.249 67H159.336V69H173.249V67ZM160.336 68V36.1733H158.336V68H160.336ZM172.976 63.9987C175.436 63.9987 177.641 63.5349 179.561 62.5746L178.667 60.7857C177.071 61.5834 175.184 61.9987 172.976 61.9987V63.9987ZM179.567 62.5715C181.518 61.5799 183.031 60.175 184.073 58.3588L182.339 57.3631C181.502 58.8204 180.287 59.9617 178.661 60.7887L179.567 62.5715ZM184.07 58.3638C185.14 56.5248 185.661 54.422 185.661 52.0867H183.661C183.661 54.1161 183.212 55.8629 182.342 57.358L184.07 58.3638ZM185.661 52.0867C185.661 49.7517 185.141 47.6607 184.066 45.8481L182.346 46.8677C183.212 48.3286 183.661 50.0568 183.661 52.0867H185.661ZM184.077 45.8669C183.034 44.0164 181.517 42.6053 179.555 41.6412L178.673 43.4361C180.288 44.23 181.499 45.3651 182.335 46.8489L184.077 45.8669ZM179.574 41.6504C177.65 40.6556 175.441 40.1747 172.976 40.1747V42.1747C175.179 42.1747 177.062 42.6031 178.655 43.4269L179.574 41.6504ZM172.976 40.1747H165.247V42.1747H172.976V40.1747ZM164.247 41.1747V62.9987H166.247V41.1747H164.247ZM165.247 63.9987H172.976V61.9987H165.247V63.9987ZM220.769 63.0441H221.769V62.0441H220.769V63.0441ZM220.769 68V69H221.769V68H220.769ZM196.899 68H195.899V69H196.899V68ZM196.899 36.1733V35.1733H195.899V36.1733H196.899ZM220.133 36.1733H221.133V35.1733H220.133V36.1733ZM220.133 41.1292V42.1292H221.133V41.1292H220.133ZM202.81 41.1292V40.1292H201.81V41.1292H202.81ZM202.81 49.4041H201.81V50.4041H202.81V49.4041ZM218.178 49.4041H219.178V48.4041H218.178V49.4041ZM218.178 54.2691V55.2691H219.178V54.2691H218.178ZM202.81 54.2691V53.2691H201.81V54.2691H202.81ZM202.81 63.0441H201.81V64.0441H202.81V63.0441ZM219.769 63.0441V68H221.769V63.0441H219.769ZM220.769 67H196.899V69H220.769V67ZM197.899 68V36.1733H195.899V68H197.899ZM196.899 37.1733H220.133V35.1733H196.899V37.1733ZM219.133 36.1733V41.1292H221.133V36.1733H219.133ZM220.133 40.1292H202.81V42.1292H220.133V40.1292ZM201.81 41.1292V49.4041H203.81V41.1292H201.81ZM202.81 50.4041H218.178V48.4041H202.81V50.4041ZM217.178 49.4041V54.2691H219.178V49.4041H217.178ZM218.178 53.2691H202.81V55.2691H218.178V53.2691ZM201.81 54.2691V63.0441H203.81V54.2691H201.81ZM202.81 64.0441H220.769V62.0441H202.81V64.0441ZM248.182 68L247.362 68.5721L247.661 69H248.182V68ZM241.681 58.6793L242.501 58.1072L242.161 57.6198L241.57 57.6854L241.681 58.6793ZM233.269 58.7248V57.7248H232.269V58.7248H233.269ZM233.269 68V69H234.269V68H233.269ZM227.359 68H226.359V69H227.359V68ZM227.359 36.1733V35.1733H226.359V36.1733H227.359ZM247.637 37.5373L247.228 38.45L247.233 38.4523L247.637 37.5373ZM252.365 41.4475L253.206 40.9067V40.9067L252.365 41.4475ZM252.229 53.678L251.403 53.1133L251.397 53.1233L252.229 53.678ZM247.227 57.5427L246.865 56.6107L245.678 57.0724L246.408 58.1161L247.227 57.5427ZM254.548 68V69H256.468L255.367 67.4265L254.548 68ZM246.045 42.8115L245.412 43.5854V43.5854L246.045 42.8115ZM233.269 41.1747V40.1747H232.269V41.1747H233.269ZM233.269 53.8599H232.269V54.8599H233.269V53.8599ZM246.045 52.2231L246.679 52.9971L246.689 52.9884L246.045 52.2231ZM249.002 67.4279L242.501 58.1072L240.86 59.2515L247.362 68.5721L249.002 67.4279ZM241.57 57.6854C241.354 57.7094 240.99 57.7248 240.453 57.7248V59.7248C241.007 59.7248 241.461 59.7099 241.791 59.6732L241.57 57.6854ZM240.453 57.7248H233.269V59.7248H240.453V57.7248ZM232.269 58.7248V68H234.269V58.7248H232.269ZM233.269 67H227.359V69H233.269V67ZM228.359 68V36.1733H226.359V68H228.359ZM227.359 37.1733H240.453V35.1733H227.359V37.1733ZM240.453 37.1733C243.103 37.1733 245.353 37.6103 247.228 38.45L248.045 36.6246C245.859 35.6457 243.319 35.1733 240.453 35.1733V37.1733ZM247.233 38.4523C249.136 39.292 250.551 40.4745 251.524 41.9882L253.206 40.9067C251.997 39.0255 250.259 37.6013 248.04 36.6224L247.233 38.4523ZM251.524 41.9882C252.496 43.5003 253.002 45.3216 253.002 47.4945H255.002C255.002 44.9995 254.417 42.7895 253.206 40.9067L251.524 41.9882ZM253.002 47.4945C253.002 49.7175 252.456 51.575 251.403 53.1133L253.054 54.2427C254.366 52.3255 255.002 50.0607 255.002 47.4945H253.002ZM251.397 53.1233C250.373 54.6586 248.881 55.8266 246.865 56.6107L247.59 58.4747C249.938 57.5613 251.781 56.1529 253.061 54.2327L251.397 53.1233ZM246.408 58.1161L253.728 68.5735L255.367 67.4265L248.047 56.9692L246.408 58.1161ZM254.548 67H248.182V69H254.548V67ZM249.046 47.4945C249.046 45.2234 248.287 43.3534 246.679 42.0375L245.412 43.5854C246.471 44.4519 247.046 45.704 247.046 47.4945H249.046ZM246.679 42.0375C245.096 40.7431 242.877 40.1747 240.18 40.1747V42.1747C242.636 42.1747 244.327 42.6975 245.412 43.5854L246.679 42.0375ZM240.18 40.1747H233.269V42.1747H240.18V40.1747ZM232.269 41.1747V53.8599H234.269V41.1747H232.269ZM233.269 54.8599H240.18V52.8599H233.269V54.8599ZM240.18 54.8599C242.877 54.8599 245.096 54.2915 246.679 52.997L245.412 51.4491C244.327 52.3371 242.636 52.8599 240.18 52.8599V54.8599ZM246.689 52.9884C248.287 51.6445 249.046 49.7663 249.046 47.4945H247.046C247.046 49.2844 246.471 50.5586 245.402 51.4577L246.689 52.9884ZM279.182 66.3632L278.698 67.2384L278.71 67.245L279.182 66.3632ZM273.089 60.498L272.226 61.0032L272.231 61.011L273.089 60.498ZM273.135 43.6753L272.277 43.1624L273.135 43.6753ZM279.227 37.8556L279.703 38.7351L279.707 38.7331L279.227 37.8556ZM295.095 37.0827L294.706 38.0038V38.0038L295.095 37.0827ZM300.551 41.0383L301.236 41.7667L301.933 41.1116L301.31 40.3864L300.551 41.0383ZM296.732 44.6301L295.999 45.3099L296.683 46.0487L297.417 45.3586L296.732 44.6301ZM282.365 42.3568L282.842 43.2354L282.854 43.2288L282.365 42.3568ZM278.318 46.3124L279.186 46.8085L278.318 46.3124ZM278.318 57.8609L279.186 57.3648L278.318 57.8609ZM282.365 61.862L281.875 62.7341L281.887 62.7405L282.365 61.862ZM296.732 59.4977L297.422 58.7736L296.683 58.0703L295.995 58.8224L296.732 59.4977ZM300.551 63.1351L301.31 63.787L301.929 63.0663L301.241 62.4109L300.551 63.1351ZM295.05 67.0907L294.665 66.1676L294.661 66.1695L295.05 67.0907ZM287.912 67.4547C284.849 67.4547 282.103 66.7915 279.654 65.4814L278.71 67.245C281.475 68.7235 284.549 69.4547 287.912 69.4547V67.4547ZM279.666 65.4881C277.241 64.1475 275.341 62.3162 273.948 59.985L272.231 61.011C273.809 63.6508 275.97 65.7297 278.698 67.2383L279.666 65.4881ZM273.952 59.9928C272.595 57.6733 271.907 55.0466 271.907 52.0867H269.907C269.907 55.3709 270.674 58.3517 272.226 61.0032L273.952 59.9928ZM271.907 52.0867C271.907 49.1306 272.608 46.5066 273.993 44.1883L272.277 43.1624C270.691 45.8151 269.907 48.7986 269.907 52.0867H271.907ZM273.993 44.1883C275.385 41.859 277.283 40.0449 279.703 38.7351L278.752 36.9761C276.019 38.4549 273.855 40.5206 272.277 43.1624L273.993 44.1883ZM279.707 38.7331C282.155 37.3953 284.898 36.7187 287.957 36.7187V34.7187C284.591 34.7187 281.514 35.4666 278.748 36.9781L279.707 38.7331ZM287.957 36.7187C290.446 36.7187 292.691 37.1522 294.706 38.0038L295.485 36.1615C293.196 35.1944 290.682 34.7187 287.957 34.7187V36.7187ZM294.706 38.0038C296.72 38.8547 298.411 40.0825 299.793 41.6902L301.31 40.3864C299.721 38.5386 297.775 37.1293 295.485 36.1615L294.706 38.0038ZM299.866 40.3098L296.047 43.9017L297.417 45.3586L301.236 41.7667L299.866 40.3098ZM297.466 43.9504C294.974 41.2624 291.875 39.9019 288.23 39.9019V41.9019C291.314 41.9019 293.883 43.0269 295.999 45.3099L297.466 43.9504ZM288.23 39.9019C285.894 39.9019 283.767 40.4226 281.875 41.4848L282.854 43.2288C284.418 42.3511 286.201 41.9019 288.23 41.9019V39.9019ZM281.887 41.4783C279.997 42.5061 278.513 43.9566 277.45 45.8163L279.186 46.8085C280.064 45.2734 281.277 44.0868 282.842 43.2353L281.887 41.4783ZM277.45 45.8163C276.385 47.6797 275.863 49.7785 275.863 52.0867H277.863C277.863 50.0906 278.311 48.34 279.186 46.8085L277.45 45.8163ZM275.863 52.0867C275.863 54.3948 276.385 56.4937 277.45 58.3571L279.186 57.3648C278.311 55.8334 277.863 54.0827 277.863 52.0867H275.863ZM277.45 58.3571C278.511 60.214 279.992 61.6766 281.875 62.734L282.854 60.99C281.282 60.1075 280.065 58.9027 279.186 57.3648L277.45 58.3571ZM281.887 62.7405C283.777 63.7683 285.899 64.2715 288.23 64.2715V62.2715C286.196 62.2715 284.408 61.835 282.842 60.9835L281.887 62.7405ZM288.23 64.2715C291.879 64.2715 294.98 62.8925 297.47 60.1731L295.995 58.8224C293.877 61.1346 291.309 62.2715 288.23 62.2715V64.2715ZM296.042 60.2219L299.862 63.8592L301.241 62.4109L297.422 58.7736L296.042 60.2219ZM299.793 62.4832C298.413 64.0881 296.709 65.3159 294.665 66.1676L295.434 68.0137C297.755 67.0467 299.719 65.6375 301.31 63.787L299.793 62.4832ZM294.661 66.1695C292.645 67.0211 290.4 67.4547 287.912 67.4547V69.4547C290.637 69.4547 293.15 68.9789 295.439 68.0118L294.661 66.1695ZM311.641 66.3632L311.162 67.2407L311.17 67.245L311.641 66.3632ZM305.503 60.498L304.642 61.0064L304.645 61.011L305.503 60.498ZM305.503 43.7208L306.362 44.2338L306.364 44.2292L305.503 43.7208ZM311.641 37.8556L312.113 38.7374L312.121 38.7331L311.641 37.8556ZM329.191 37.8556L328.712 38.7331L328.72 38.7374L329.191 37.8556ZM335.329 43.6753L334.471 44.1883V44.1883L335.329 43.6753ZM335.329 60.498L334.471 59.985L335.329 60.498ZM329.191 66.3632L329.663 67.245L329.671 67.2407L329.191 66.3632ZM326.145 61.862L326.63 62.737L326.641 62.7302L326.145 61.862ZM330.146 57.8609L331.014 58.3571L331.018 58.3505L330.146 57.8609ZM330.146 46.3579L329.274 46.8474L329.278 46.854L330.146 46.3579ZM326.145 42.3568L325.649 43.2251L325.661 43.2317L326.145 42.3568ZM314.688 42.3568L315.172 43.2318L315.184 43.225L314.688 42.3568ZM310.686 46.3579L311.555 46.854L311.558 46.8474L310.686 46.3579ZM310.686 57.8609L309.814 58.3505L309.818 58.3571L310.686 57.8609ZM314.688 61.862L314.191 62.7303L314.203 62.7369L314.688 61.862ZM320.416 67.4547C317.321 67.4547 314.561 66.7908 312.113 65.4814L311.17 67.245C313.935 68.7243 317.025 69.4547 320.416 69.4547V67.4547ZM312.121 65.4857C309.666 64.1443 307.753 62.3133 306.362 59.985L304.645 61.011C306.224 63.6537 308.403 65.7329 311.162 67.2407L312.121 65.4857ZM306.364 59.9896C304.975 57.6369 304.275 55.0104 304.275 52.0867H302.275C302.275 55.3464 303.061 58.3275 304.642 61.0064L306.364 59.9896ZM304.275 52.0867C304.275 49.1628 304.975 46.5536 306.362 44.2338L304.645 43.2078C303.061 45.859 302.275 48.827 302.275 52.0867H304.275ZM306.364 44.2292C307.755 41.8731 309.666 40.0463 312.113 38.7374L311.17 36.9738C308.403 38.4535 306.222 40.5368 304.642 43.2124L306.364 44.2292ZM312.121 38.7331C314.567 37.3961 317.325 36.7187 320.416 36.7187V34.7187C317.021 34.7187 313.929 35.4659 311.162 36.9781L312.121 38.7331ZM320.416 36.7187C323.508 36.7187 326.265 37.3961 328.712 38.7331L329.671 36.9781C326.904 35.4659 323.811 34.7187 320.416 34.7187V36.7187ZM328.72 38.7374C331.17 40.048 333.081 41.8619 334.471 44.1883L336.188 43.1624C334.607 40.5177 332.426 38.4518 329.663 36.9738L328.72 38.7374ZM334.471 44.1883C335.856 46.5066 336.557 49.1306 336.557 52.0867H338.557C338.557 48.7986 337.773 45.8151 336.188 43.1624L334.471 44.1883ZM336.557 52.0867C336.557 55.0427 335.856 57.6667 334.471 59.985L336.188 61.011C337.773 58.3583 338.557 55.3747 338.557 52.0867H336.557ZM334.471 59.985C333.08 62.3133 331.166 64.1443 328.712 65.4857L329.671 67.2407C332.43 65.7329 334.609 63.6537 336.188 61.011L334.471 59.985ZM328.72 65.4814C326.272 66.7908 323.511 67.4547 320.416 67.4547V69.4547C323.808 69.4547 326.897 68.7243 329.663 67.245L328.72 65.4814ZM320.416 64.2715C322.691 64.2715 324.77 63.7661 326.629 62.7369L325.661 60.9871C324.125 61.8372 322.385 62.2715 320.416 62.2715V64.2715ZM326.641 62.7302C328.494 61.6717 329.956 60.2095 331.014 58.3571L329.278 57.3648C328.397 58.9072 327.191 60.1124 325.649 60.9938L326.641 62.7302ZM331.018 58.3505C332.078 56.4627 332.601 54.3674 332.601 52.0867H330.601C330.601 54.0495 330.154 55.8037 329.274 57.3714L331.018 58.3505ZM332.601 52.0867C332.601 49.8062 332.078 47.723 331.014 45.8617L329.278 46.854C330.154 48.3876 330.601 50.1236 330.601 52.0867H332.601ZM331.018 45.8683C329.959 43.9823 328.493 42.5135 326.629 41.4819L325.661 43.2317C327.192 44.0794 328.393 45.278 329.274 46.8474L331.018 45.8683ZM326.641 41.4886C324.78 40.425 322.697 39.9019 320.416 39.9019V41.9019C322.379 41.9019 324.115 42.3487 325.649 43.225L326.641 41.4886ZM320.416 39.9019C318.136 39.9019 316.053 40.425 314.191 41.4886L315.184 43.225C316.717 42.3487 318.453 41.9019 320.416 41.9019V39.9019ZM314.203 41.4819C312.34 42.5135 310.873 43.9823 309.814 45.8683L311.558 46.8474C312.44 45.278 313.641 44.0794 315.172 43.2317L314.203 41.4819ZM309.818 45.8617C308.755 47.723 308.232 49.8062 308.232 52.0867H310.232C310.232 50.1236 310.678 48.3876 311.555 46.854L309.818 45.8617ZM308.232 52.0867C308.232 54.3674 308.755 56.4627 309.814 58.3505L311.558 57.3714C310.678 55.8037 310.232 54.0495 310.232 52.0867H308.232ZM309.818 58.3571C310.877 60.2095 312.339 61.6717 314.191 62.7302L315.184 60.9938C313.641 60.1124 312.436 58.9072 311.555 57.3648L309.818 58.3571ZM314.203 62.7369C316.062 63.7661 318.141 64.2715 320.416 64.2715V62.2715C318.448 62.2715 316.707 61.8372 315.172 60.9871L314.203 62.7369ZM372.103 36.1733H373.103V35.1733H372.103V36.1733ZM372.103 68V69H373.103V68H372.103ZM367.238 68L366.462 68.6315L366.762 69H367.238V68ZM349.688 46.4488L350.463 45.8173L348.688 43.6372V46.4488H349.688ZM349.688 68V69H350.688V68H349.688ZM343.822 68H342.822V69H343.822V68ZM343.822 36.1733V35.1733H342.822V36.1733H343.822ZM348.687 36.1733L349.463 35.5419L349.163 35.1733H348.687V36.1733ZM366.238 57.7245L365.462 58.356L367.238 60.5362V57.7245H366.238ZM366.238 36.1733V35.1733H365.238V36.1733H366.238ZM371.103 36.1733V68H373.103V36.1733H371.103ZM372.103 67H367.238V69H372.103V67ZM368.013 67.3685L350.463 45.8173L348.912 47.0803L366.462 68.6315L368.013 67.3685ZM348.688 46.4488V68H350.688V46.4488H348.688ZM349.688 67H343.822V69H349.688V67ZM344.822 68V36.1733H342.822V68H344.822ZM343.822 37.1733H348.687V35.1733H343.822V37.1733ZM347.912 36.8048L365.462 58.356L367.013 57.0931L349.463 35.5419L347.912 36.8048ZM367.238 57.7245V36.1733H365.238V57.7245H367.238ZM366.238 37.1733H372.103V35.1733H366.238V37.1733ZM383.359 67.4089L383.066 68.365L383.069 68.3661L383.359 67.4089ZM377.948 64.6355L377.035 64.2285L376.733 64.9069L377.295 65.3923L377.948 64.6355ZM379.994 60.0433L380.615 59.2589L379.605 58.4605L379.081 59.6364L379.994 60.0433ZM384.768 62.5895L384.434 63.5319L384.443 63.5351L384.452 63.5381L384.768 62.5895ZM395.771 62.4076L395.232 61.5657L395.222 61.5722L395.771 62.4076ZM396.544 57.1789L395.855 57.9031L395.872 57.9199L395.891 57.9358L396.544 57.1789ZM394.089 55.7695L394.405 54.8208L394.089 55.7695ZM389.997 54.6328L390.236 53.6616L390.228 53.6599L389.997 54.6328ZM384.086 52.9051L383.725 53.8374L383.731 53.8398L384.086 52.9051ZM380.222 50.2225L379.461 50.8718L379.47 50.8818L379.478 50.8915L380.222 50.2225ZM380.04 40.4472L379.208 39.8925L379.205 39.8966L380.04 40.4472ZM384.359 36.9917L383.958 36.0756L383.953 36.0779L384.359 36.9917ZM397.181 36.4461L396.931 37.4144V37.4144L397.181 36.4461ZM402.046 38.5376L402.972 38.9137L403.279 38.158L402.6 37.7055L402.046 38.5376ZM400.182 43.1297L399.675 43.9921L400.673 44.5777L401.108 43.5059L400.182 43.1297ZM395.817 41.2656L395.547 42.2286V42.2286L395.817 41.2656ZM386.178 41.8112L385.613 40.9858L385.603 40.993L386.178 41.8112ZM385.45 47.1763L384.779 47.9178L384.788 47.9255L384.797 47.9331L385.45 47.1763ZM387.951 48.5403L388.267 47.5916L387.951 48.5403ZM392.043 49.6769L391.805 50.6482L391.818 50.6513L392.043 49.6769ZM397.863 51.4047L397.491 52.3331L397.499 52.3364L397.508 52.3394L397.863 51.4047ZM401.727 54.0872L400.975 54.7458L400.984 54.7562L401.727 54.0872ZM401.909 63.7716L401.083 63.2088L401.079 63.2149L401.075 63.221L401.909 63.7716ZM397.59 67.1816L397.189 66.2654L397.59 67.1816ZM390.497 67.4547C388.138 67.4547 385.856 67.12 383.649 66.4518L383.069 68.3661C385.469 69.0922 387.946 69.4547 390.497 69.4547V67.4547ZM383.652 66.4529C381.468 65.783 379.801 64.914 378.602 63.8786L377.295 65.3923C378.763 66.6606 380.703 67.6406 383.066 68.365L383.652 66.4529ZM378.862 65.0424L380.908 60.4503L379.081 59.6364L377.035 64.2285L378.862 65.0424ZM379.374 60.8277C380.779 61.9383 382.471 62.8355 384.434 63.5319L385.103 61.647C383.307 61.0097 381.817 60.2095 380.615 59.2589L379.374 60.8277ZM384.452 63.5381C386.458 64.2068 388.474 64.5443 390.497 64.5443V62.5443C388.701 62.5443 386.898 62.2452 385.085 61.6408L384.452 63.5381ZM390.497 64.5443C392.933 64.5443 394.927 64.1604 396.321 63.243L395.222 61.5722C394.312 62.1704 392.79 62.5443 390.497 62.5443V64.5443ZM396.311 63.2495C397.736 62.336 398.545 61.0394 398.545 59.4068H396.545C396.545 60.2597 396.171 60.9637 395.232 61.5657L396.311 63.2495ZM398.545 59.4068C398.545 58.2175 398.093 57.1948 397.198 56.4221L395.891 57.9358C396.33 58.3148 396.545 58.7774 396.545 59.4068H398.545ZM397.234 56.4548C396.472 55.729 395.518 55.1916 394.405 54.8208L393.773 56.7181C394.661 57.0142 395.344 57.4164 395.855 57.9031L397.234 56.4548ZM394.405 54.8208C393.368 54.475 391.974 54.0887 390.236 53.6617L389.759 55.6039C391.475 56.0256 392.81 56.3971 393.773 56.7181L394.405 54.8208ZM390.228 53.6599C387.826 53.0893 385.901 52.525 384.442 51.9703L383.731 53.8398C385.303 54.437 387.319 55.0245 389.766 55.6057L390.228 53.6599ZM384.448 51.9727C383.112 51.4549 381.954 50.6524 380.965 49.5536L379.478 50.8915C380.672 52.2176 382.09 53.2035 383.725 53.8374L384.448 51.9727ZM380.982 49.5733C380.115 48.5574 379.63 47.1429 379.63 45.2212H377.63C377.63 47.4824 378.207 49.4021 379.461 50.8718L380.982 49.5733ZM379.63 45.2212C379.63 43.6527 380.046 42.2539 380.875 40.9978L379.205 39.8966C378.154 41.4898 377.63 43.2737 377.63 45.2212H379.63ZM380.872 41.0019C381.718 39.733 382.995 38.6925 384.765 37.9055L383.953 36.0779C381.904 36.9884 380.302 38.2515 379.208 39.8925L380.872 41.0019ZM384.76 37.9079C386.54 37.129 388.76 36.7187 391.452 36.7187V34.7187C388.567 34.7187 386.058 35.157 383.958 36.0756L384.76 37.9079ZM391.452 36.7187C393.308 36.7187 395.133 36.9505 396.931 37.4144L397.431 35.4779C395.47 34.9718 393.476 34.7187 391.452 34.7187V36.7187ZM396.931 37.4144C398.721 37.8764 400.236 38.5327 401.491 39.3696L402.6 37.7055C401.128 36.7238 399.399 35.9858 397.431 35.4779L396.931 37.4144ZM401.119 38.1615L399.255 42.7536L401.108 43.5059L402.972 38.9137L401.119 38.1615ZM400.688 42.2673C399.221 41.4066 397.687 40.7508 396.086 40.3026L395.547 42.2286C396.978 42.6291 398.353 43.2161 399.675 43.9921L400.688 42.2673ZM396.086 40.3026C394.492 39.8562 392.931 39.6291 391.407 39.6291V41.6291C392.731 41.6291 394.11 41.8262 395.547 42.2286L396.086 40.3026ZM391.407 39.6291C388.993 39.6291 387.009 40.0305 385.613 40.9859L386.743 42.6365C387.65 42.0157 389.152 41.6291 391.407 41.6291V39.6291ZM385.603 40.993C384.231 41.9569 383.496 43.2999 383.496 44.9484H385.496C385.496 43.9901 385.881 43.2417 386.753 42.6294L385.603 40.993ZM383.496 44.9484C383.496 46.1214 383.92 47.14 384.779 47.9178L386.121 46.4347C385.708 46.0607 385.496 45.5941 385.496 44.9484H383.496ZM384.797 47.9331C385.58 48.6094 386.535 49.1222 387.635 49.4889L388.267 47.5916C387.367 47.2915 386.655 46.895 386.104 46.4194L384.797 47.9331ZM387.635 49.4889C388.672 49.8347 390.066 50.221 391.805 50.6481L392.282 48.7058C390.565 48.2842 389.231 47.9127 388.267 47.5916L387.635 49.4889ZM391.818 50.6513C394.154 51.1904 396.04 51.7527 397.491 52.3331L398.234 50.4762C396.654 49.8442 394.661 49.2547 392.268 48.7025L391.818 50.6513ZM397.508 52.3394C398.871 52.8576 400.023 53.6573 400.975 54.7457L402.48 53.4287C401.311 52.0922 399.886 51.1036 398.218 50.4699L397.508 52.3394ZM400.984 54.7562C401.87 55.7404 402.364 57.116 402.364 58.9976H404.364C404.364 56.7569 403.767 54.8589 402.471 53.4182L400.984 54.7562ZM402.364 58.9976C402.364 60.5592 401.937 61.9536 401.083 63.2088L402.736 64.3344C403.821 62.7403 404.364 60.9521 404.364 58.9976H402.364ZM401.075 63.221C400.264 64.4495 398.995 65.4755 397.189 66.2654L397.991 68.0978C400.065 67.1903 401.675 65.9429 402.744 64.3222L401.075 63.221ZM397.189 66.2654C395.409 67.0443 393.189 67.4547 390.497 67.4547V69.4547C393.382 69.4547 395.891 69.0163 397.991 68.0978L397.189 66.2654ZM415.237 41.1747H416.237V40.1747H415.237V41.1747ZM404.689 41.1747H403.689V42.1747H404.689V41.1747ZM404.689 36.1733V35.1733H403.689V36.1733H404.689ZM431.696 36.1733H432.696V35.1733H431.696V36.1733ZM431.696 41.1747V42.1747H432.696V41.1747H431.696ZM421.148 41.1747V40.1747H420.148V41.1747H421.148ZM421.148 68V69H422.148V68H421.148ZM415.237 68H414.237V69H415.237V68ZM415.237 40.1747H404.689V42.1747H415.237V40.1747ZM405.689 41.1747V36.1733H403.689V41.1747H405.689ZM404.689 37.1733H431.696V35.1733H404.689V37.1733ZM430.696 36.1733V41.1747H432.696V36.1733H430.696ZM431.696 40.1747H421.148V42.1747H431.696V40.1747ZM420.148 41.1747V68H422.148V41.1747H420.148ZM421.148 67H415.237V69H421.148V67ZM416.237 68V41.1747H414.237V68H416.237ZM456.956 68L456.136 68.5721L456.434 69H456.956V68ZM450.454 58.6793L451.274 58.1072L450.934 57.6198L450.344 57.6854L450.454 58.6793ZM442.043 58.7248V57.7248H441.043V58.7248H442.043ZM442.043 68V69H443.043V68H442.043ZM436.132 68H435.132V69H436.132V68ZM436.132 36.1733V35.1733H435.132V36.1733H436.132ZM456.41 37.5373L456.002 38.45L456.007 38.4523L456.41 37.5373ZM461.139 41.4475L461.98 40.9067V40.9067L461.139 41.4475ZM461.002 53.678L460.177 53.1133L460.17 53.1233L461.002 53.678ZM456.001 57.5427L455.639 56.6107L454.451 57.0724L455.182 58.1161L456.001 57.5427ZM463.321 68V69H465.242L464.141 67.4265L463.321 68ZM454.819 42.8115L454.186 43.5854V43.5854L454.819 42.8115ZM442.043 41.1747V40.1747H441.043V41.1747H442.043ZM442.043 53.8599H441.043V54.8599H442.043V53.8599ZM454.819 52.2231L455.452 52.9971L455.463 52.9884L454.819 52.2231ZM457.776 67.4279L451.274 58.1072L449.634 59.2515L456.136 68.5721L457.776 67.4279ZM450.344 57.6854C450.128 57.7094 449.764 57.7248 449.227 57.7248V59.7248C449.781 59.7248 450.235 59.7099 450.565 59.6732L450.344 57.6854ZM449.227 57.7248H442.043V59.7248H449.227V57.7248ZM441.043 58.7248V68H443.043V58.7248H441.043ZM442.043 67H436.132V69H442.043V67ZM437.132 68V36.1733H435.132V68H437.132ZM436.132 37.1733H449.227V35.1733H436.132V37.1733ZM449.227 37.1733C451.877 37.1733 454.126 37.6103 456.002 38.45L456.819 36.6246C454.633 35.6457 452.093 35.1733 449.227 35.1733V37.1733ZM456.007 38.4523C457.91 39.292 459.325 40.4745 460.298 41.9882L461.98 40.9067C460.771 39.0255 459.033 37.6013 456.814 36.6224L456.007 38.4523ZM460.298 41.9882C461.27 43.5003 461.776 45.3216 461.776 47.4945H463.776C463.776 44.9995 463.19 42.7895 461.98 40.9067L460.298 41.9882ZM461.776 47.4945C461.776 49.7175 461.23 51.575 460.177 53.1133L461.828 54.2427C463.14 52.3255 463.776 50.0607 463.776 47.4945H461.776ZM460.17 53.1233C459.147 54.6586 457.655 55.8266 455.639 56.6107L456.364 58.4747C458.712 57.5613 460.554 56.1529 461.835 54.2327L460.17 53.1233ZM455.182 58.1161L462.502 68.5735L464.141 67.4265L456.82 56.9692L455.182 58.1161ZM463.321 67H456.956V69H463.321V67ZM457.82 47.4945C457.82 45.2234 457.061 43.3534 455.452 42.0375L454.186 43.5854C455.245 44.4519 455.82 45.704 455.82 47.4945H457.82ZM455.452 42.0375C453.87 40.7431 451.651 40.1747 448.954 40.1747V42.1747C451.409 42.1747 453.1 42.6975 454.186 43.5854L455.452 42.0375ZM448.954 40.1747H442.043V42.1747H448.954V40.1747ZM441.043 41.1747V53.8599H443.043V41.1747H441.043ZM442.043 54.8599H448.954V52.8599H442.043V54.8599ZM448.954 54.8599C451.651 54.8599 453.87 54.2915 455.452 52.997L454.186 51.4491C453.1 52.3371 451.409 52.8599 448.954 52.8599V54.8599ZM455.463 52.9884C457.061 51.6445 457.82 49.7663 457.82 47.4945H455.82C455.82 49.2844 455.245 50.5586 454.175 51.4577L455.463 52.9884ZM472.799 64.7719L472.087 65.4746L472.091 65.479L472.799 64.7719ZM469.116 36.1733V35.1733H468.116V36.1733H469.116ZM475.026 36.1733H476.026V35.1733H475.026V36.1733ZM491.167 36.1733V35.1733H490.167V36.1733H491.167ZM496.987 36.1733H497.987V35.1733H496.987V36.1733ZM493.304 64.7719L492.593 64.0691L492.593 64.0692L493.304 64.7719ZM483.074 67.4547C478.87 67.4547 475.727 66.2858 473.506 64.0648L472.091 65.479C474.781 68.1683 478.488 69.4547 483.074 69.4547V67.4547ZM473.51 64.0691C471.293 61.8246 470.116 58.5637 470.116 54.1327H468.116C468.116 58.9162 469.394 62.7481 472.087 65.4746L473.51 64.0691ZM470.116 54.1327V36.1733H468.116V54.1327H470.116ZM469.116 37.1733H475.026V35.1733H469.116V37.1733ZM474.026 36.1733V53.9053H476.026V36.1733H474.026ZM474.026 53.9053C474.026 57.1486 474.724 59.7678 476.293 61.5837C477.886 63.4276 480.227 64.2715 483.12 64.2715V62.2715C480.617 62.2715 478.911 61.5543 477.806 60.2761C476.678 58.97 476.026 56.9061 476.026 53.9053H474.026ZM483.12 64.2715C485.999 64.2715 488.329 63.4265 489.914 61.5816C491.474 59.7658 492.167 57.1475 492.167 53.9053H490.167C490.167 56.9072 489.519 58.972 488.397 60.2782C487.299 61.5554 485.605 62.2715 483.12 62.2715V64.2715ZM492.167 53.9053V36.1733H490.167V53.9053H492.167ZM491.167 37.1733H496.987V35.1733H491.167V37.1733ZM495.987 36.1733V54.1327H497.987V36.1733H495.987ZM495.987 54.1327C495.987 58.5637 494.81 61.8246 492.593 64.0691L494.015 65.4746C496.709 62.7481 497.987 58.9162 497.987 54.1327H495.987ZM492.593 64.0692C490.404 66.2856 487.279 67.4547 483.074 67.4547V69.4547C487.66 69.4547 491.355 68.1685 494.016 65.4746L492.593 64.0692ZM511.266 66.3632L510.782 67.2384L510.795 67.245L511.266 66.3632ZM505.174 60.498L504.311 61.0032L504.315 61.011L505.174 60.498ZM505.219 43.6753L504.361 43.1624L505.219 43.6753ZM511.312 37.8556L511.788 38.7351L511.791 38.7331L511.312 37.8556ZM527.18 37.0827L526.79 38.0038V38.0038L527.18 37.0827ZM532.636 41.0383L533.321 41.7667L534.017 41.1116L533.394 40.3864L532.636 41.0383ZM528.816 44.6301L528.083 45.3099L528.768 46.0487L529.501 45.3586L528.816 44.6301ZM514.449 42.3568L514.927 43.2354L514.938 43.2288L514.449 42.3568ZM510.402 46.3124L511.271 46.8085L510.402 46.3124ZM510.402 57.8609L511.271 57.3648L510.402 57.8609ZM514.449 61.862L513.959 62.7341L513.971 62.7405L514.449 61.862ZM528.816 59.4977L529.506 58.7736L528.768 58.0703L528.079 58.8224L528.816 59.4977ZM532.636 63.1351L533.394 63.787L534.013 63.0663L533.325 62.4109L532.636 63.1351ZM527.134 67.0907L526.75 66.1676L526.745 66.1695L527.134 67.0907ZM519.996 67.4547C516.933 67.4547 514.187 66.7915 511.738 65.4814L510.795 67.245C513.559 68.7235 516.633 69.4547 519.996 69.4547V67.4547ZM511.75 65.4881C509.326 64.1475 507.425 62.3162 506.032 59.985L504.315 61.011C505.893 63.6508 508.054 65.7297 510.782 67.2383L511.75 65.4881ZM506.037 59.9928C504.679 57.6733 503.991 55.0466 503.991 52.0867H501.991C501.991 55.3709 502.759 58.3517 504.311 61.0032L506.037 59.9928ZM503.991 52.0867C503.991 49.1306 504.692 46.5066 506.078 44.1883L504.361 43.1624C502.776 45.8151 501.991 48.7986 501.991 52.0867H503.991ZM506.078 44.1883C507.469 41.859 509.367 40.0449 511.788 38.7351L510.836 36.9761C508.103 38.4549 505.939 40.5206 504.361 43.1624L506.078 44.1883ZM511.791 38.7331C514.239 37.3953 516.982 36.7187 520.041 36.7187V34.7187C516.675 34.7187 513.598 35.4666 510.832 36.9781L511.791 38.7331ZM520.041 36.7187C522.53 36.7187 524.775 37.1522 526.79 38.0038L527.569 36.1615C525.28 35.1944 522.766 34.7187 520.041 34.7187V36.7187ZM526.79 38.0038C528.804 38.8547 530.495 40.0825 531.877 41.6902L533.394 40.3864C531.805 38.5386 529.859 37.1293 527.569 36.1615L526.79 38.0038ZM531.951 40.3098L528.131 43.9017L529.501 45.3586L533.321 41.7667L531.951 40.3098ZM529.55 43.9504C527.059 41.2624 523.959 39.9019 520.314 39.9019V41.9019C523.398 41.9019 525.967 43.0269 528.083 45.3099L529.55 43.9504ZM520.314 39.9019C517.978 39.9019 515.851 40.4226 513.959 41.4848L514.938 43.2288C516.502 42.3511 518.285 41.9019 520.314 41.9019V39.9019ZM513.971 41.4783C512.081 42.5061 510.597 43.9566 509.534 45.8163L511.271 46.8085C512.148 45.2734 513.361 44.0868 514.927 43.2353L513.971 41.4783ZM509.534 45.8163C508.469 47.6797 507.947 49.7785 507.947 52.0867H509.947C509.947 50.0906 510.396 48.34 511.271 46.8085L509.534 45.8163ZM507.947 52.0867C507.947 54.3948 508.469 56.4937 509.534 58.3571L511.271 57.3648C510.396 55.8334 509.947 54.0827 509.947 52.0867H507.947ZM509.534 58.3571C510.595 60.214 512.076 61.6766 513.959 62.734L514.938 60.99C513.366 60.1075 512.149 58.9027 511.271 57.3648L509.534 58.3571ZM513.971 62.7405C515.861 63.7683 517.983 64.2715 520.314 64.2715V62.2715C518.28 62.2715 516.492 61.835 514.927 60.9835L513.971 62.7405ZM520.314 64.2715C523.964 64.2715 527.064 62.8925 529.554 60.1731L528.079 58.8224C525.962 61.1346 523.394 62.2715 520.314 62.2715V64.2715ZM528.127 60.2219L531.946 63.8592L533.325 62.4109L529.506 58.7736L528.127 60.2219ZM531.877 62.4832C530.498 64.0881 528.793 65.3159 526.75 66.1676L527.519 68.0137C529.84 67.0467 531.803 65.6375 533.394 63.787L531.877 62.4832ZM526.745 66.1695C524.729 67.0211 522.484 67.4547 519.996 67.4547V69.4547C522.721 69.4547 525.235 68.9789 527.523 68.0118L526.745 66.1695ZM544.4 41.1747H545.4V40.1747H544.4V41.1747ZM533.852 41.1747H532.852V42.1747H533.852V41.1747ZM533.852 36.1733V35.1733H532.852V36.1733H533.852ZM560.859 36.1733H561.859V35.1733H560.859V36.1733ZM560.859 41.1747V42.1747H561.859V41.1747H560.859ZM550.311 41.1747V40.1747H549.311V41.1747H550.311ZM550.311 68V69H551.311V68H550.311ZM544.4 68H543.4V69H544.4V68ZM544.4 40.1747H533.852V42.1747H544.4V40.1747ZM534.852 41.1747V36.1733H532.852V41.1747H534.852ZM533.852 37.1733H560.859V35.1733H533.852V37.1733ZM559.859 36.1733V41.1747H561.859V36.1733H559.859ZM560.859 40.1747H550.311V42.1747H560.859V40.1747ZM549.311 41.1747V68H551.311V41.1747H549.311ZM550.311 67H544.4V69H550.311V67ZM545.4 68V41.1747H543.4V68H545.4ZM565.295 36.1733V35.1733H564.295V36.1733H565.295ZM571.206 36.1733H572.206V35.1733H571.206V36.1733ZM571.206 68V69H572.206V68H571.206ZM565.295 68H564.295V69H565.295V68ZM565.295 37.1733H571.206V35.1733H565.295V37.1733ZM570.206 36.1733V68H572.206V36.1733H570.206ZM571.206 67H565.295V69H571.206V67ZM566.295 68V36.1733H564.295V68H566.295ZM585.907 66.3632L585.427 67.2407L585.435 67.245L585.907 66.3632ZM579.769 60.498L578.907 61.0064L578.91 61.011L579.769 60.498ZM579.769 43.7208L580.627 44.2338L580.63 44.2292L579.769 43.7208ZM585.907 37.8556L586.378 38.7374L586.386 38.7331L585.907 37.8556ZM603.457 37.8556L602.977 38.7331L602.985 38.7374L603.457 37.8556ZM609.595 43.6753L608.736 44.1883V44.1883L609.595 43.6753ZM609.595 60.498L608.736 59.985L609.595 60.498ZM603.457 66.3632L603.928 67.245L603.936 67.2407L603.457 66.3632ZM600.41 61.862L600.895 62.737L600.907 62.7302L600.41 61.862ZM604.411 57.8609L605.28 58.3571L605.283 58.3505L604.411 57.8609ZM604.411 46.3579L603.539 46.8474L603.543 46.854L604.411 46.3579ZM600.41 42.3568L599.914 43.2251L599.926 43.2317L600.41 42.3568ZM588.953 42.3568L589.437 43.2318L589.449 43.225L588.953 42.3568ZM584.952 46.3579L585.82 46.854L585.824 46.8474L584.952 46.3579ZM584.952 57.8609L584.08 58.3505L584.083 58.3571L584.952 57.8609ZM588.953 61.862L588.457 62.7303L588.468 62.7369L588.953 61.862ZM594.682 67.4547C591.587 67.4547 588.826 66.7908 586.378 65.4814L585.435 67.245C588.2 68.7243 591.29 69.4547 594.682 69.4547V67.4547ZM586.386 65.4857C583.932 64.1443 582.018 62.3133 580.627 59.985L578.91 61.011C580.489 63.6537 582.668 65.7329 585.427 67.2407L586.386 65.4857ZM580.63 59.9896C579.241 57.6369 578.541 55.0104 578.541 52.0867H576.541C576.541 55.3464 577.326 58.3275 578.907 61.0064L580.63 59.9896ZM578.541 52.0867C578.541 49.1628 579.241 46.5536 580.627 44.2338L578.91 43.2078C577.326 45.859 576.541 48.827 576.541 52.0867H578.541ZM580.63 44.2292C582.021 41.8731 583.931 40.0463 586.378 38.7374L585.435 36.9738C582.669 38.4535 580.487 40.5368 578.907 43.2124L580.63 44.2292ZM586.386 38.7331C588.833 37.3961 591.59 36.7187 594.682 36.7187V34.7187C591.286 34.7187 588.194 35.4659 585.427 36.9781L586.386 38.7331ZM594.682 36.7187C597.773 36.7187 600.531 37.3961 602.977 38.7331L603.936 36.9781C601.169 35.4659 598.077 34.7187 594.682 34.7187V36.7187ZM602.985 38.7374C605.435 40.048 607.346 41.8619 608.736 44.1883L610.453 43.1624C608.873 40.5177 606.692 38.4518 603.928 36.9738L602.985 38.7374ZM608.736 44.1883C610.122 46.5066 610.823 49.1306 610.823 52.0867H612.823C612.823 48.7986 612.038 45.8151 610.453 43.1624L608.736 44.1883ZM610.823 52.0867C610.823 55.0427 610.122 57.6667 608.736 59.985L610.453 61.011C612.038 58.3583 612.823 55.3747 612.823 52.0867H610.823ZM608.736 59.985C607.345 62.3133 605.432 64.1443 602.977 65.4857L603.936 67.2407C606.695 65.7329 608.874 63.6537 610.453 61.011L608.736 59.985ZM602.985 65.4814C600.537 66.7908 597.777 67.4547 594.682 67.4547V69.4547C598.073 69.4547 601.163 68.7243 603.928 67.245L602.985 65.4814ZM594.682 64.2715C596.957 64.2715 599.035 63.7661 600.895 62.7369L599.926 60.9871C598.391 61.8372 596.65 62.2715 594.682 62.2715V64.2715ZM600.907 62.7302C602.759 61.6717 604.221 60.2095 605.28 58.3571L603.543 57.3648C602.662 58.9072 601.457 60.1124 599.914 60.9938L600.907 62.7302ZM605.283 58.3505C606.343 56.4627 606.866 54.3674 606.866 52.0867H604.866C604.866 54.0495 604.42 55.8037 603.539 57.3714L605.283 58.3505ZM606.866 52.0867C606.866 49.8062 606.343 47.723 605.28 45.8617L603.543 46.854C604.42 48.3876 604.866 50.1236 604.866 52.0867H606.866ZM605.283 45.8683C604.225 43.9823 602.758 42.5135 600.895 41.4819L599.926 43.2317C601.457 44.0794 602.658 45.278 603.539 46.8474L605.283 45.8683ZM600.907 41.4886C599.045 40.425 596.962 39.9019 594.682 39.9019V41.9019C596.645 41.9019 598.381 42.3487 599.914 43.225L600.907 41.4886ZM594.682 39.9019C592.401 39.9019 590.318 40.425 588.457 41.4886L589.449 43.225C590.983 42.3487 592.719 41.9019 594.682 41.9019V39.9019ZM588.468 41.4819C586.605 42.5135 585.139 43.9823 584.08 45.8683L585.824 46.8474C586.705 45.278 587.906 44.0794 589.437 43.2317L588.468 41.4819ZM584.083 45.8617C583.02 47.723 582.497 49.8062 582.497 52.0867H584.497C584.497 50.1236 584.944 48.3876 585.82 46.854L584.083 45.8617ZM582.497 52.0867C582.497 54.3674 583.02 56.4627 584.08 58.3505L585.824 57.3714C584.944 55.8037 584.497 54.0495 584.497 52.0867H582.497ZM584.083 58.3571C585.142 60.2095 586.604 61.6717 588.457 62.7302L589.449 60.9938C587.907 60.1124 586.701 58.9072 585.82 57.3648L584.083 58.3571ZM588.468 62.7369C590.328 63.7661 592.407 64.2715 594.682 64.2715V62.2715C592.713 62.2715 590.973 61.8372 589.437 60.9871L588.468 62.7369ZM646.368 36.1733H647.368V35.1733H646.368V36.1733ZM646.368 68V69H647.368V68H646.368ZM641.503 68L640.728 68.6315L641.028 69H641.503V68ZM623.953 46.4488L624.728 45.8173L622.953 43.6372V46.4488H623.953ZM623.953 68V69H624.953V68H623.953ZM618.088 68H617.088V69H618.088V68ZM618.088 36.1733V35.1733H617.088V36.1733H618.088ZM622.953 36.1733L623.728 35.5419L623.428 35.1733H622.953V36.1733ZM640.503 57.7245L639.727 58.356L641.503 60.5362V57.7245H640.503ZM640.503 36.1733V35.1733H639.503V36.1733H640.503ZM645.368 36.1733V68H647.368V36.1733H645.368ZM646.368 67H641.503V69H646.368V67ZM642.278 67.3685L624.728 45.8173L623.177 47.0803L640.728 68.6315L642.278 67.3685ZM622.953 46.4488V68H624.953V46.4488H622.953ZM623.953 67H618.088V69H623.953V67ZM619.088 68V36.1733H617.088V68H619.088ZM618.088 37.1733H622.953V35.1733H618.088V37.1733ZM622.177 36.8048L639.727 58.356L641.278 57.0931L623.728 35.5419L622.177 36.8048ZM641.503 57.7245V36.1733H639.503V57.7245H641.503ZM640.503 37.1733H646.368V35.1733H640.503V37.1733Z" fill="white" mask="url(#path-12-outside-1_21_38)"/>
</svg>
